<svg xmlns="http://www.w3.org/2000/svg" viewBox="0 0 262.52 134.69"><defs><style>.cls-1{fill:red;}.cls-2{fill-rule:evenodd;}</style></defs><g id="圖層_2" data-name="圖層 2"><g id="圖層_1-2" data-name="圖層 1"><path class="cls-1" d="M80.92,89.74A18.67,18.67,0,1,1,62.25,71.06,18.67,18.67,0,0,1,80.92,89.74Z"/><path d="M15.62,76.37h7.23L38.6,107.84H30.92l-4.27-8.73H17.59L14,94.25l-6.3,13.59H0Zm3.48,6.72L14.18,93.48H24.36L19.3,83.09Z"/><path d="M49.12,76.37h19a9.77,9.77,0,0,1,4.23.86,8.45,8.45,0,0,1,3,2.27,9.69,9.69,0,0,1,1.77,3.23,11.73,11.73,0,0,1,.6,3.72,13,13,0,0,1-1.41,6.3,7.16,7.16,0,0,1-4.77,3.46l9.13,11.63H72.1L58.45,91.62h9.06A2.57,2.57,0,0,0,69,91.1a4.48,4.48,0,0,0,1.22-1.27,7,7,0,0,0,.79-1.6,4.6,4.6,0,0,0,.29-1.52,4.23,4.23,0,0,0-.23-1.27A6.05,6.05,0,0,0,70.43,84a4.87,4.87,0,0,0-1-1.14,2.05,2.05,0,0,0-1.25-.46h-19Z"/><path d="M123,76.37V81.9h-10.1v25.94h-7.1V81.9H95.66V76.37Z"/><path d="M152.59,107.84h-7.85V76.3h7.85Z"/><path d="M211.06,107.84h-7.43l-18.88-21.1v21.1h-7.6V76.3h7.47L203.4,97.42V76.3h7.66Z"/><path d="M262.52,107.84h-7.44L236.2,86.74v21.1h-7.6V76.3h7.47l18.79,21.12V76.3h7.66Z"/><path d="M64.86,122.33v2.75H52.65a1.6,1.6,0,0,0-1.13.43,1.29,1.29,0,0,0-.46,1v4a1.42,1.42,0,0,0,.46,1,1.78,1.78,0,0,0,1.13.41h9.27V130H57.7v-2.61h7.59v7.28H51.66a4,4,0,0,1-2.82-1.06,3.31,3.31,0,0,1-1.15-2.55v-5.14a3.31,3.31,0,0,1,1.15-2.55,4,4,0,0,1,2.82-1.06Z"/><path d="M80.55,122.33a4,4,0,0,1,2.81,1.06,3.29,3.29,0,0,1,1.16,2.55v5.14a3.29,3.29,0,0,1-1.16,2.55,4,4,0,0,1-2.81,1.06H70.89a4,4,0,0,1-2.82-1.06,3.32,3.32,0,0,1-1.16-2.55v-5.14a3.32,3.32,0,0,1,1.16-2.55,4,4,0,0,1,2.82-1.06Zm-9.8,3.18a1.26,1.26,0,0,0-.46,1v4a1.39,1.39,0,0,0,.46,1,1.76,1.76,0,0,0,1.13.41h7.68a1.77,1.77,0,0,0,1.12-.42,1.35,1.35,0,0,0,.46-1v-4a1.3,1.3,0,0,0-.46-1,1.42,1.42,0,0,0-1.12-.42H71.88A1.58,1.58,0,0,0,70.75,125.51Z"/><path d="M86.15,134.69V122.33h3.37v9.61h11.25v2.75Z"/><path d="M117.3,122.33v2.75H105.77v2.41h10v2.7h-10v4.5H102.4V122.33Z"/><path d="M141.07,122.33a4.67,4.67,0,0,1,2.08.48,3.88,3.88,0,0,1,1.58,1.32,2.85,2.85,0,0,1,.59,1.81v5.14a2.88,2.88,0,0,1-.6,1.82,4.14,4.14,0,0,1-1.58,1.31,4.5,4.5,0,0,1-2.07.48H128V122.33Zm-9.74,9.61h9a1.75,1.75,0,0,0,1.12-.42,1.36,1.36,0,0,0,.47-1v-4a1.31,1.31,0,0,0-.47-1,1.41,1.41,0,0,0-1.12-.42h-9Z"/><path d="M160.27,123.9v2.63h-10.1V128h8.76v2.58h-8.76v1.53h10.1v2.62H147V123.9Z"/><path d="M165.55,123.9h6.69a3.62,3.62,0,0,1,2.57,1,3,3,0,0,1,1.06,2.33v.06h-3.1v-.06a.54.54,0,0,0-.21-.47.75.75,0,0,0-.52-.2h-6a.77.77,0,0,0-.52.2.59.59,0,0,0-.21.47.64.64,0,0,0,.22.48.72.72,0,0,0,.51.19h3.27c1.47,0,2.56,0,3.26,0a3.72,3.72,0,0,1,2.63,1,3.21,3.21,0,0,1,0,4.82,3.76,3.76,0,0,1-2.63,1h-7a3.77,3.77,0,0,1-2.63-1,3.13,3.13,0,0,1-1.09-2.41v-.06h3v.08a.8.8,0,0,0,.25.56.88.88,0,0,0,.61.22h6.56a.91.91,0,0,0,.62-.22.67.67,0,0,0,.24-.55.72.72,0,0,0-.25-.56.73.73,0,0,0-.61-.23h-6.76a3.71,3.71,0,0,1-2.57-1,3.11,3.11,0,0,1-1.07-2.35,3,3,0,0,1,1.05-2.3,3.87,3.87,0,0,1,2.53-1h.05Z"/><path d="M181.15,123.9v10.79H178V123.9Z"/><path d="M197.69,123.9v2.63H187.15a1.15,1.15,0,0,0-.85.31,1,1,0,0,0-.34.77V131a1,1,0,0,0,.35.77,1.42,1.42,0,0,0,.84.32h7.72v-1.35h-3.58v-2.51h6.77v6.48H186.31a3.63,3.63,0,0,1-2.51-.94,3,3,0,0,1-1-2.26v-4.38a3.1,3.1,0,0,1,1-2.27,3.6,3.6,0,0,1,2.5-.94Z"/><path d="M202.77,123.9l8.88,7.19V123.9h3.18v10.79h-3.1l-8.86-7.19v7.19h-3.19V123.9Z"/><path class="cls-2" d="M110.81,0q10,23.28,20,46.54l1.35.05L151.47.25l1.35.1a180.24,180.24,0,0,1,.89,18.43c-6.33,14-12.43,28.08-18.78,42.06a5,5,0,0,1-3.47,2.44A5,5,0,0,1,127.78,61c-7-15-14-29.91-20.25-45.08.28-3.45,1.79-14.37,2.18-15.87Z"/><path class="cls-2" d="M75.56,30.37c10.35,4.92,24,12.38,34.32,17.3.4-.19-5.95-13.36-5.55-13.55a66.81,66.81,0,0,1,3.09-7.1c4.51,9.34,8.79,18.08,12.89,26.9a3.45,3.45,0,0,1-.86,3,3.43,3.43,0,0,1-3,.31c-10.77-4.41-21.63-10.31-32.1-15C81.23,37.64,75.19,30.85,75.56,30.37Z"/><path class="cls-2" d="M187,29c-10.56,5.41-24.49,13.52-35.05,18.92-.39-.17,6.71-13.77,6.32-13.95a60.85,60.85,0,0,0-2.62-7.06c-5,9.63-9.81,18.66-14.41,27.77a3.31,3.31,0,0,0,.66,3,3.23,3.23,0,0,0,3,.18c10.92-4.89,22-11.32,32.7-16.53C180.9,36.55,187.3,29.42,187,29Z"/><polygon points="131.13 20.29 122.5 0.24 139.77 0.24 131.13 20.29"/></g></g></svg>