<svg xmlns="http://www.w3.org/2000/svg" viewBox="0 0 188.11 145.24"><defs><style>.cls-1{fill-rule:evenodd;}</style></defs><g id="圖層_2" data-name="圖層 2"><g id="圖層_1-2" data-name="圖層 1"><path class="cls-1" d="M129,82.44c-.54.42-1,.86-1.6,1.24a17.06,17.06,0,0,1-1.83,1.1,10.58,10.58,0,0,1-2.24,1c-.49.11-1,.34-1.43.49s-1,.25-1.47.36-1,.23-1.57.31a6.71,6.71,0,0,1-1.1.09c-.92,0-1.85.05-2.76,0-.75-.06-1.49-.25-2.24-.38-.42-.08-.86-.13-1.28-.23-.74-.18-1.49-.4-2.24-.59-.34-.1-.7-.15-1-.23l-1.76-.47c-.51-.13-1-.25-1.54-.36-.92-.2-1.83-.4-2.75-.58a16,16,0,0,0-3.31-.29c-.56,0-1.13-.13-1.69-.1-.73,0-1.46.19-2.18.29-.22,0-.43,0-.64.09-.86.2-1.75.37-2.59.64a14.09,14.09,0,0,0-2,.86c-.8.42-1.6.87-2.36,1.36a18,18,0,0,0-1.6,1.29c-.6.51-1.21,1-1.77,1.55a9.58,9.58,0,0,0-1,1.25c-.26.36-.52.41-.86.16L80.48,90c.65-.6,1.18-1.16,1.78-1.64,1.09-.86,2.19-1.69,3.32-2.49s2-1.41,3.09-2a19.79,19.79,0,0,1,2-1c.55-.26,1.09-.52,1.64-.75.35-.16.71-.29,1.06-.41.54-.18,1.08-.37,1.62-.52s1-.26,1.5-.38a8,8,0,0,1,2.66-.39,5.12,5.12,0,0,0,1.18,0,7.16,7.16,0,0,1,2.26-.11c1,0,2.07.1,3.11.21a19.91,19.91,0,0,1,2.31.4c.68.15,1.35.39,2,.56s1.35.28,2,.45,1.07.35,1.61.5a12,12,0,0,0,1.35.31c.75.14,1.51.25,2.27.37l2,.25c.57.07,1.14.19,1.71.21a12.58,12.58,0,0,0,2.53-.09,10,10,0,0,0,2.5-.49,17.82,17.82,0,0,1,2.46-.68,2.09,2.09,0,0,1,.5,0C129,82.31,129,82.37,129,82.44Z"/><path class="cls-1" d="M57.88,81c.51.16,1,.3,1.53.47a4.9,4.9,0,0,0,.66.31,14.1,14.1,0,0,0,2.74.52c1.15,0,2.3.17,3.45.16a22.41,22.41,0,0,0,3.06-.25,19.53,19.53,0,0,0,2.7-.62c.84-.25,1.63-.64,2.46-.94a10,10,0,0,1,1.08-.26c.68-.18,1.35-.38,2-.53a13,13,0,0,1,1.87-.3c1.23-.1,2.47-.2,3.71-.2a16.73,16.73,0,0,1,2.43.27,14.77,14.77,0,0,1,1.69.4c.79.22,1.56.48,2.34.73a5,5,0,0,1,.76.3,1,1,0,0,1,.34.35s-.15.21-.27.28a25.24,25.24,0,0,0-2.42,1.66,2,2,0,0,1-1.39.39c-1.06.05-2.13.1-3.18.2-.54,0-1.08.23-1.62.33-.16,0-.33,0-.5,0-.54.07-1.09.15-1.63.25s-1,.27-1.57.38-1,.14-1.48.24-.9.24-1.35.33a5.42,5.42,0,0,1-.8.08,49.43,49.43,0,0,1-6.44.18A8.37,8.37,0,0,1,66,85.49a26.66,26.66,0,0,1-2.73-.94,15.74,15.74,0,0,1-2.07-.89,22,22,0,0,1-2-1.29c-.43-.3-.85-.62-1.26-.94a1,1,0,0,1-.2-.29S57.85,81.05,57.88,81Z"/><path class="cls-1" d="M117.16,78.83c.38-.08.77-.15,1.15-.25.59-.17,1.18-.37,1.77-.54.17-.05.35-.05.52-.09.85-.18,1.68-.39,2.53-.57s1.62-.31,2.42-.5c.59-.14,1.17-.37,1.75-.53.38-.1.77-.13,1.14-.24s.93-.32,1.39-.48l1.38-.51c.75-.29,1.51-.54,2.23-.89a24.59,24.59,0,0,0,2.39-1.37c.56-.35,1.07-.78,1.61-1.15a5,5,0,0,1,.75-.33l.11.11c-.17.44-.31.89-.51,1.32a6.07,6.07,0,0,1-.77,1.33,24.23,24.23,0,0,1-1.76,1.75c-.33.29-.68.56-1,.82a15.68,15.68,0,0,1-1.32.86c-.49.3-1,.57-1.49.82s-1.18.59-1.81.83a19.85,19.85,0,0,1-3.66,1c-.82.15-1.63.32-2.45.42a19.9,19.9,0,0,1-2.56.18c-1.67,0-3.33,0-5,0-.61,0-1.22,0-1.84.06-.39,0-.79.13-1.21.19a.71.71,0,0,1,.23-.77,14.13,14.13,0,0,0,.94-1.35c.48-.73,1-1.44,1.4-2.19s.62-1.39.93-2.08c.1-.21.27-.38.36-.58.36-.83.69-1.66,1.07-2.48a14.63,14.63,0,0,1,.83-1.5c.31-.55.65-1.07,1-1.6a11.5,11.5,0,0,1,2-2.16c.62-.59,1.25-1.16,1.9-1.72a2.6,2.6,0,0,1,.4-.23l.13.09a15,15,0,0,1-.32,1.48c-.14.45-.35.86-.52,1.29-.4,1-.75,2-1.18,3s-.84,1.71-1.29,2.56-1,1.9-1.53,2.82c-.37.63-.86,1.19-1.27,1.79-.29.43-.54.87-.82,1.31Z"/><path class="cls-1" d="M60.37,70.06c-.16-.34-.34-.68-.5-1-.26-.6-.49-1.2-.75-1.79s-.47-1-.7-1.47-.4-.87-.57-1.32-.3-.9-.44-1.36-.29-.91-.41-1.38a15.35,15.35,0,0,1-.41-3.77c0-.51-.13-1-.12-1.55A8.56,8.56,0,0,1,56.69,55a.27.27,0,0,1,.22-.15.46.46,0,0,1,.31.15c.58,1,1.13,2.06,1.71,3.08a11.72,11.72,0,0,1,.83,2.23,13.79,13.79,0,0,1,.62,2.35A22.53,22.53,0,0,0,61,64.92c.2.79.37,1.58.61,2.36s.51,1.34.79,2,.65,1.54,1,2.29.75,1.39,1.12,2.1a3.17,3.17,0,0,1,.15.55,3.23,3.23,0,0,1-.54-.11c-.74-.26-1.48-.53-2.21-.82-.39-.15-.74-.38-1.13-.53-.68-.27-1.36-.49-2-.75-.52-.19-1-.4-1.54-.62s-1.14-.5-1.7-.78c-.83-.43-1.65-.87-2.47-1.33-.64-.36-1.29-.71-1.89-1.13s-.83-.75-1.25-1.11c-.27-.23-.56-.43-.84-.65A23.21,23.21,0,0,1,46.74,64c-.3-.3-.45-.75-.73-1.09A13.76,13.76,0,0,1,44.41,60,7.63,7.63,0,0,1,44,58.89c0-.1,0-.23.08-.34s.26,0,.33.1c.76.67,1.47,1.41,2.27,2s1.63,1.14,2.45,1.68,1.36.88,2.06,1.28,1.18.58,1.74.93q1.43.9,2.79,1.89c.92.66,1.81,1.36,2.69,2.07.52.42,1,.91,1.49,1.36a3.67,3.67,0,0,0,.38.27Z"/><path class="cls-1" d="M126.54,71.67c.18-.1.35-.19.51-.3.49-.31,1-.64,1.47-1s1.18-.79,1.78-1.16,1.53-.9,2.28-1.37,1.44-.92,2.14-1.41l3.14-2.18c.64-.47,1.26-1,1.9-1.44s1.37-1,2-1.5c.45-.34.86-.73,1.3-1.09a.6.6,0,0,1,.43-.09,2.33,2.33,0,0,1-.16.53c-.47.94-.89,1.92-1.44,2.82s-1.22,1.76-1.8,2.67a3,3,0,0,1-.77.79c-.17.12-.24.37-.41.51a16.76,16.76,0,0,1-2.64,1.94c-.72.37-1.41.83-2.14,1.21s-1.36.64-2,1-1.1.55-1.67.78-1,.32-1.46.51c-.77.3-1.52.63-2.27.94-.56.22-1.14.41-1.69.65-.85.38-1.68.82-2.54,1.17-.36.14-.74.52-1.25.16.15-.2.32-.38.44-.58.33-.51.65-1,1-1.55a12.53,12.53,0,0,0,.65-1.12,11.11,11.11,0,0,0,.56-1.27c.35-1,.7-1.9,1-2.86a12.28,12.28,0,0,0,.28-1.2c.12-.49.24-1,.35-1.47s.16-.82.27-1.23c.15-.59.31-1.18.5-1.77s.45-1.35.73-2a15.62,15.62,0,0,1,.86-1.74c.38-.67.79-1.32,1.2-2a6.18,6.18,0,0,1,.64-.88c.09-.1.29-.1.57-.18a6.94,6.94,0,0,0-.15,1.64,6.32,6.32,0,0,1-.12,1.31c0,.78-.11,1.56-.19,2.33a5.65,5.65,0,0,1-.17.71c-.15.73-.28,1.47-.43,2.19s-.27,1.25-.45,1.86a19.86,19.86,0,0,1-.72,2c-.42,1-.89,1.94-1.34,2.91a6,6,0,0,0-.23.64Z"/><path class="cls-1" d="M69.7,77.7c-.35-.45-.7-.9-1-1.37-.52-.71-1.06-1.42-1.56-2.15s-.82-1.28-1.18-1.94c-.51-.9-1-1.82-1.46-2.75-.2-.4-.25-.89-.46-1.29a16.43,16.43,0,0,1-.78-2.37,10,10,0,0,1-.28-1.56l.12-.1c.19.07.44.08.58.21.7.62,1.4,1.24,2,1.92A13.16,13.16,0,0,1,66.86,68c.46.71.9,1.43,1.3,2.16.31.55.53,1.14.79,1.7.17.37.37.72.53,1.1.34.8.62,1.62,1,2.41s.81,1.58,1.21,2.38.75,1.49,1.12,2.23a2.15,2.15,0,0,1,.09.31,2.8,2.8,0,0,1-.42,0L70.09,80c-.82-.08-1.65-.14-2.47-.23-.59-.06-1.19-.14-1.78-.19-.75-.07-1.52-.09-2.26-.21s-1.46-.34-2.18-.53-1.49-.41-2.24-.64a14.88,14.88,0,0,1-1.62-.59,24.66,24.66,0,0,1-2.8-1.31,9.06,9.06,0,0,1-2.28-1.61C52,74.1,51.34,73.59,50.81,73c-.35-.39-.64-.83-1-1.25-.11-.14-.25-.27-.35-.42s-.27-.54-.41-.82a.34.34,0,0,1,.54-.08,19.77,19.77,0,0,0,3.16,1.65c.74.35,1.54.51,2.27.9a7.37,7.37,0,0,0,1.55.49c.79.22,1.58.42,2.37.63.52.13,1.05.25,1.57.39l.45.14c.55.19,1.09.41,1.64.58s1.17.32,1.74.51,1.07.43,1.61.65.93.34,1.39.53.76.35,1.15.5.74.26,1.1.39C69.66,77.77,69.67,77.73,69.7,77.7Z"/><path class="cls-1" d="M41.08,44.4c.43-.13.45.27.6.48.33.46.62,1,1,1.4.64.79,1.31,1.56,2,2.32.3.35.62.67.92,1s.68.89,1,1.34.77.95,1.13,1.44c.53.74,1,1.5,1.55,2.25.62.91,1.25,1.82,1.88,2.72.33.48.69.94,1.1,1.49,0-.19.08-.28,0-.33A3.44,3.44,0,0,1,52.17,57c-.1-1.36-.22-2.71-.26-4.07,0-1.08,0-2.17.05-3.25a8.45,8.45,0,0,1,.21-1.51c.15-.71.32-1.42.52-2.12a11.12,11.12,0,0,1,.46-1.21.31.31,0,0,1,.22-.15.27.27,0,0,1,.21.16c.23.62.46,1.24.65,1.88s.42,1.52.58,2.29c.12.6.18,1.23.24,1.85a9.32,9.32,0,0,1,.1,1.4c0,1.17-.1,2.33-.16,3.5V56c0,1.67,0,3.35.09,5a7.62,7.62,0,0,0,.48,2.47.82.82,0,0,1,0,.88c-.74-.54-1.48-1.08-2.21-1.63-.35-.27-.68-.56-1-.84-.62-.48-1.26-.93-1.85-1.45-1.08-1-2.16-2-3.17-3A25.67,25.67,0,0,1,45.24,55c-.58-.78-1.12-1.61-1.62-2.44A12.45,12.45,0,0,1,42.89,51c-.23-.55-.45-1.1-.67-1.65a8.39,8.39,0,0,1-.27-.85c-.18-.66-.31-1.34-.53-2a5.55,5.55,0,0,1-.37-1.92A.66.66,0,0,1,41.08,44.4Z"/><path class="cls-1" d="M134.62,33.24c.38-.39.53-.35.78.18s.52,1,.74,1.49c.29.7.55,1.41.82,2.12.2.5.41,1,.58,1.5s.31,1,.44,1.52.33,1.29.46,1.93c.09.46.13.92.23,1.37a25.39,25.39,0,0,1,.2,5.08,4.36,4.36,0,0,1-.08.81l.13,0c.1-.25.2-.49.31-.73.31-.71.62-1.43.94-2.14s.72-1.53,1.08-2.3c.52-1.13,1-2.26,1.54-3.4.39-.88.77-1.77,1.17-2.65.24-.51.52-1,.74-1.51s.47-1.17.71-1.76.51-1.23.75-1.86c.11-.3.18-.63.28-.94l.13,0a4.92,4.92,0,0,1,.41.83,7.45,7.45,0,0,1,.26,2.62,2.35,2.35,0,0,1-.05.37c-.06.73-.07,1.46-.2,2.18a18.69,18.69,0,0,1-.63,2.66,14.61,14.61,0,0,1-1,2.41,12,12,0,0,1-1.48,2.25c-.39.45-.69,1-1,1.47-.54.75-1.11,1.47-1.64,2.23-.64.94-1.27,1.89-1.87,2.86-.49.79-.94,1.6-1.38,2.41-.09.16,0,.39-.12.55a1,1,0,0,1-.41.46c-.11.06-.38-.06-.45-.18a.53.53,0,0,1,0-.49,1.27,1.27,0,0,0,.27-.83c0-1,0-1.94-.07-2.91a12.18,12.18,0,0,0-.33-1.66c-.13-.64-.25-1.29-.4-1.92-.11-.42-.27-.81-.39-1.23s-.15-.67-.24-1c-.19-.72-.4-1.44-.58-2.17a3.81,3.81,0,0,1-.08-.59c-.08-.6-.16-1.21-.22-1.81s-.13-1.42-.2-2.13a10.24,10.24,0,0,1-.12-1.23c0-1.1.08-2.2.11-3.3A2.09,2.09,0,0,0,134.62,33.24Z"/><path class="cls-1" d="M41.45,29.58a3.19,3.19,0,0,1,.28.56c.2.69.33,1.41.58,2.09.36,1,.86,2,1.2,3A34,34,0,0,0,45,38.35c.35.78.79,1.5,1.15,2.27.24.55.41,1.13.63,1.68s.55,1.2.8,1.81c.16.37.27.76.41,1.14.23.66.47,1.32.74,2.09.05-.28.11-.44.12-.61,0-.7.08-1.4.15-2.1s.15-1.52.24-2.28c.06-.54.14-1.09.24-1.63s.25-1,.37-1.57.26-1.34.45-2c.13-.43.35-.85.53-1.28s.41-1,.67-1.52.66-1.17,1-1.73c.06-.11.21-.16.38-.27.09.29.17.55.24.81a11.57,11.57,0,0,1,.17,3.11,9.16,9.16,0,0,1-.19,1.64c-.17.82-.39,1.62-.6,2.43s-.39,1.57-.63,2.35-.56,1.54-.78,2.32-.31,1.43-.44,2.15c-.15.91-.29,1.83-.42,2.75-.06.51-.07,1-.13,1.54a1.17,1.17,0,0,1-.14.35.84.84,0,0,1-.33-.19c-.69-1-1.38-1.92-2.09-2.87-.33-.45-.73-.85-1.08-1.29-.52-.67-1-1.35-1.51-2a12.94,12.94,0,0,1-.87-1.31c-.57-1-1.08-2-1.65-2.93a15.84,15.84,0,0,1-1.16-3.05,16,16,0,0,1-.44-5.43,19.19,19.19,0,0,1,.26-2.39A3.2,3.2,0,0,1,41.45,29.58Z"/><path class="cls-1" d="M134.84,60.88l1.13-1.5c.39-.57.77-1.15,1.16-1.73s.56-.92.86-1.36a5.61,5.61,0,0,1,.47-.62c.62-.75,1.23-1.51,1.86-2.25.75-.91,1.52-1.81,2.29-2.7.54-.63,1.11-1.23,1.66-1.86.37-.43.72-.89,1.1-1.31a.3.3,0,0,1,.32,0,.33.33,0,0,1,.06.29,5.5,5.5,0,0,0-.58,1.77c-.22.61-.3,1.26-.5,1.88a19.84,19.84,0,0,1-1.36,3.09,19.94,19.94,0,0,1-1.31,2c-.25.38-.48.76-.77,1.12s-.61.67-.92,1a8.36,8.36,0,0,1-.68.79c-.7.65-1.42,1.3-2.15,1.92-.38.32-.8.6-1.2.91s-.59.53-.9.78c-.5.41-1,.81-1.51,1.23-.33.26-.63.55-1,.83l-1.49,1.31c-.08.06-.23,0-.47.08a5.26,5.26,0,0,1,.37-1.21,5.66,5.66,0,0,0,.57-1.79c.18-.8.21-1.64.43-2.42a13.56,13.56,0,0,0,.33-4.3,19.08,19.08,0,0,0-.34-2.23c0-.21,0-.42-.06-.64,0-1.38-.15-2.76-.11-4.14a4.62,4.62,0,0,1,.47-2,7.84,7.84,0,0,0,.44-1.29c.11-.33.19-.66.32-1,0-.08.21-.14.31-.13a.32.32,0,0,1,.2.22c.11.71.19,1.41.31,2.11s.26,1.39.39,2.08.29,1.3.4,2,.14,1.16.21,1.74.16,1.13.17,1.7a11.71,11.71,0,0,1-.05,2.37,24.34,24.34,0,0,0-.4,2.56,2.78,2.78,0,0,1-.18.67Z"/><path class="cls-1" d="M47.74,33.93a8.71,8.71,0,0,0,.45-1.49,8.48,8.48,0,0,1,.76-2,5.21,5.21,0,0,1,.4-.94c.48-.8,1-1.58,1.48-2.39A15.48,15.48,0,0,1,53,24.46c.72-.77,1.36-1.62,2-2.42a1.15,1.15,0,0,1,.36-.2l.13.07c-.08.38-.18.76-.25,1.14s-.15.94-.28,1.4c-.2.66-.46,1.31-.71,1.95a11.2,11.2,0,0,1-.6,1.42,13.75,13.75,0,0,1-1,1.5c-.51.71-1.06,1.4-1.56,2.13a18.06,18.06,0,0,0-.95,1.65c-.25.5-.43,1-.66,1.51s-.54,1.09-.74,1.66-.33,1.27-.49,1.9c-.08.3-.17.61-.25.92-.28.17-.4-.06-.48-.24-.3-.7-.58-1.4-.87-2.1-.15-.38-.31-.76-.45-1.14-.35-1-.7-1.93-1-2.9-.26-.76-.52-1.53-.74-2.3-.14-.53-.18-1.08-.31-1.6a13.88,13.88,0,0,1-.31-4.06,12.84,12.84,0,0,1,.31-1.94c.19-.83.4-1.65.65-2.46a8,8,0,0,1,.53-1.15c.18-.4.34-.8.53-1.18a2.86,2.86,0,0,1,.3-.41l.11.06c0,.06,0,.12,0,.19.08,1.13.14,2.28.22,3.42,0,.55.12,1.1.18,1.64.07.72.13,1.45.22,2.16.05.41.16.81.21,1.21.08.66.12,1.32.19,2a14.31,14.31,0,0,0,.22,2,19,19,0,0,1,.13,3.28l0,.34S47.68,33.89,47.74,33.93Z"/><path class="cls-1" d="M140.78,35.06a1.38,1.38,0,0,0,.11-.28c.05-1,.12-2,.14-3,0-.63-.13-1.25-.12-1.88,0-1.39.11-2.78.22-4.16a9.36,9.36,0,0,1,.3-1.27c0-.26,0-.54,0-.81.12-.6.28-1.21.39-1.83a7.3,7.3,0,0,0,.08-.94c.05-.8.09-1.61.14-2.41a2.57,2.57,0,0,1,.06-.4l.13,0c.14.33.31.64.43,1,.21.56.42,1.13.61,1.7.09.29.13.6.21.9.14.57.31,1.14.43,1.72s.11,1.13.25,1.67a9,9,0,0,1,.11,2.64,16.14,16.14,0,0,1-.29,2.17,11.36,11.36,0,0,1-.24,1.16c-.25.88-.53,1.75-.8,2.63s-.46,1.5-.7,2.25c-.17.57-.37,1.14-.54,1.7-.08.23-.12.46-.18.69-.16.55-.31,1.11-.49,1.66,0,.08-.13.19-.17.18a.36.36,0,0,1-.24-.19c-.14-.46-.25-.94-.39-1.41a10.19,10.19,0,0,0-.42-1.25,12.21,12.21,0,0,0-.81-1.76c-.53-.87-1.13-1.69-1.7-2.53-.28-.4-.55-.81-.82-1.22s-.81-1.05-1.16-1.6A24,24,0,0,1,134,27.92a17.62,17.62,0,0,1-1.2-2.75,4.57,4.57,0,0,1-.33-2.17c0-.1.08-.26.14-.27a.42.42,0,0,1,.36.1c.53.59,1,1.2,1.56,1.8.23.27.49.51.72.78.59.68,1.2,1.35,1.72,2.07a17.53,17.53,0,0,1,1.23,2c.45.85.87,1.72,1.28,2.6S140.32,34,140.78,35.06Z"/><path class="cls-1" d="M138,22.82c-.08-.41-.14-.83-.25-1.23-.17-.6-.38-1.19-.56-1.79-.25-.85-.5-1.71-.73-2.58-.12-.46-.2-.93-.33-1.4-.15-.63-.35-1.27-.51-1.91,0-.15,0-.33,0-.49-.15-.74-.28-1.49-.46-2.23-.12-.45-.32-.89-.45-1.35a1.48,1.48,0,0,1,0-.47c.15.05.34.06.44.16a10,10,0,0,1,1.65,1.85,14,14,0,0,1,1.11,1.75c.24.55.6,1,.85,1.58s.34.92.51,1.38c.07.18.17.36.23.54.13.47.28.94.37,1.42a16.72,16.72,0,0,1,.18,1.72c0,.72.05,1.45,0,2.17,0,1.14-.12,2.29-.2,3.42a13.32,13.32,0,0,1-.2,1.45.78.78,0,0,1-.32.44c-.05,0-.3-.13-.37-.25a17.74,17.74,0,0,0-3-3.61l-1.89-1.79c-1.17-1.11-2.36-2.21-3.53-3.33a14,14,0,0,1-1.33-1.34,17.52,17.52,0,0,1-2-3c-.07-.14,0-.35,0-.53a2.83,2.83,0,0,1,.44.11c.65.33,1.29.68,1.92,1s1.34.69,2,1.1a9.35,9.35,0,0,1,1.52,1.22c.79.76,1.54,1.56,2.27,2.37a10.17,10.17,0,0,1,.82,1.13c.45.64.89,1.29,1.33,1.93.12.2.24.41.36.6Z"/><path class="cls-1" d="M51.05,20.86c.13-.22.27-.43.39-.64a14.85,14.85,0,0,1,2.88-3.49c.54-.47,1.13-.89,1.71-1.31l2.2-1.6,1.53-1.07,1.92-1.42a.78.78,0,0,1,0,.91,19.29,19.29,0,0,1-1.16,2.08c-.47.73-1,1.42-1.53,2.11a9,9,0,0,1-1.07,1.16c-.54.5-1.13.94-1.7,1.42-.73.62-1.46,1.24-2.18,1.88S52.84,22,52.27,22.57s-1,1.07-1.44,1.63-.89,1.11-1.34,1.65a.76.76,0,0,1-.3.14,1.14,1.14,0,0,1-.16-.36c0-.58,0-1.16,0-1.74s-.15-1.11-.18-1.68c-.06-1.22-.12-2.45-.12-3.67a10.84,10.84,0,0,1,.2-2.42,8.51,8.51,0,0,1,.9-2.67c.22-.34.24-.81.43-1.18.36-.67.76-1.32,1.18-2a8.2,8.2,0,0,1,.84-1.1c.2-.23.45-.13.46.16,0,.87.06,1.74,0,2.61s-.26,1.51-.4,2.26l-.39,2.05c-.21,1-.4,2-.62,3-.08.39-.23.76-.34,1.15a1.87,1.87,0,0,0,0,.41Z"/><path class="cls-1" d="M67.16,1.08c.23.18.15.36,0,.55L66.28,3c-.31.46-.6.92-.92,1.37s-.64.86-1,1.28a8.84,8.84,0,0,1-1.14,1.23c-.41.37-.73.83-1.13,1.23q-1.18,1.22-2.4,2.4c-.57.55-1.14,1.11-1.73,1.62s-1.28,1-1.94,1.52-1.13.76-1.71,1.13c-.09.06-.24,0-.38.05a1.21,1.21,0,0,1,.17-.91c.59-.92,1.09-1.9,1.67-2.83s1.14-1.81,1.75-2.69a17,17,0,0,1,1.63-2c.71-.73,1.53-1.35,2.3-2a4.94,4.94,0,0,1,.72-.58c.43-.24.88-.44,1.33-.65.77-.36,1.56-.7,2.3-1.1A14.37,14.37,0,0,0,67.16,1.08Z"/><path class="cls-1" d="M134.2,15.47c-.26-.23-.54-.45-.8-.67l-2.06-1.73c-.32-.27-.61-.57-.92-.85l-1.91-1.78c-.63-.6-1.31-1.18-1.89-1.82s-1.28-1.56-1.91-2.34c-.31-.38-.62-.76-.9-1.16s-.55-.81-.82-1.22l-.9-1.36c.12-.16.2-.19.47-.13a8.28,8.28,0,0,1,2.23.93,11,11,0,0,1,1.85,1.3c.79.77,1.7,1.39,2.51,2.12a18.94,18.94,0,0,1,2,2.1,11.31,11.31,0,0,1,1.6,2.48c.26.62.61,1.2.89,1.82s.45,1.14.65,1.73a1.73,1.73,0,0,1,0,.51Z"/><path class="cls-1" d="M103.6,92a2.5,2.5,0,0,1-.55-.33c-.49-.49-.92-1-1.42-1.52-.71-.67-1.46-1.3-2.18-2-.29-.27-.55-.59-.86-.84-.63-.54-1.28-1-1.93-1.57-.11-.09-.25-.16-.3-.28a.37.37,0,0,1,0-.36,2.19,2.19,0,0,1,.64-.34,4.53,4.53,0,0,1,.88-.22.62.62,0,0,1,.41.12c.65.49,1.3,1,1.94,1.51.3.24.58.51.87.77.48.44,1,.87,1.45,1.32.68.64,1.36,1.3,2,2,.27.27.53.57.78.86a.35.35,0,0,1-.18.57C104.72,91.75,104.21,91.84,103.6,92Z"/><path class="cls-1" d="M86.71,0l.19.35A1.56,1.56,0,0,0,87,.5l.45-.21.19.34-.46.23.33.58.69-.09a.19.19,0,0,1,.19.1c.08.14.16.26.26.41a2.88,2.88,0,0,0-1,.29,3.42,3.42,0,0,0-.77.71c-.08-.18-.17-.35-.25-.52a.47.47,0,0,1,0-.09,1.36,1.36,0,0,1,.47-.54l-.35-.62-.43.27L86.11,1l.37-.26L86.21.28Z"/><path class="cls-1" d="M90.05,6.25,88.76,7a.13.13,0,0,1-.18,0,8.88,8.88,0,0,1-1.3-1.3,3.6,3.6,0,0,1-.57-1A1.54,1.54,0,0,1,87.08,3a3.4,3.4,0,0,1,1.72-1,1.59,1.59,0,0,1,1.79.73,5.54,5.54,0,0,1,.74,2c0,.19.07.38.11.56a.14.14,0,0,1-.09.19Z"/><path class="cls-1" d="M87.05,8.55a39.9,39.9,0,0,1,6.56-3.74l.85,1.67a30.85,30.85,0,0,0-3.31,1.64,34,34,0,0,0-3.1,2Z"/><path class="cls-1" d="M92.19,5.05c-.07-.23-.13-.45-.2-.67a5.56,5.56,0,0,0-.93-1.79,3,3,0,0,0-.76-.65,1.85,1.85,0,0,1,.44-.69,1.27,1.27,0,0,1,1.72-.13,2.46,2.46,0,0,1,.94,1.3,4.43,4.43,0,0,1,.19,1.88.18.18,0,0,1-.08.11L92.22,5Z"/><path class="cls-1" d="M88,7.47l-.92.6a3.28,3.28,0,0,1-.31.2.16.16,0,0,1-.12,0,4,4,0,0,1-1.88-1.64,2,2,0,0,1-.29-1.1,1.29,1.29,0,0,1,1.22-1.32,5.14,5.14,0,0,1,.55,0c.06.29.08.55.15.8a4.1,4.1,0,0,0,.78,1.49c.24.3.51.59.77.89Z"/><path class="cls-1" d="M121,40.48a.2.2,0,0,1-.09-.07,1.81,1.81,0,0,0-1.57-.84.9.9,0,0,0,0-1.23,1.26,1.26,0,0,1,1.42-.35,1.31,1.31,0,0,0-1.62-.31.69.69,0,0,1-.51.06,1.54,1.54,0,0,0-1.86,1.38,2.89,2.89,0,0,1-.33,1,.63.63,0,0,1-1,.24,2.31,2.31,0,0,1-1-1.08c-.19-.44-.36-.88-.55-1.33A15.72,15.72,0,0,0,111,33.63c-.56-.64-1.15-1.25-1.72-1.88a.47.47,0,0,1-.14-.3,5.33,5.33,0,0,0-.92-3.78,3,3,0,0,0,2-1.83,1.58,1.58,0,0,0,1.4.71,2.54,2.54,0,0,1-.42-2.89,3,3,0,0,1,1.44,2.05c0-.25.08-.5.09-.75a4.41,4.41,0,0,0-.85-2.48,1.54,1.54,0,0,1-.11-1.43.28.28,0,0,1,.34-.24,2,2,0,0,1,1.39.73l.07,0a2.48,2.48,0,0,0-.32-.58,7.59,7.59,0,0,0-.88-.71,1.07,1.07,0,0,1-.49-1.16c0-.07.08-.17.14-.18a2.45,2.45,0,0,1,1.44.09,1.32,1.32,0,0,1,.74.82.79.79,0,0,0-.12-.87,1.94,1.94,0,0,0-1.17-.77.78.78,0,0,1-.65-.55,2.93,2.93,0,0,0,2.2-.07,1.26,1.26,0,0,0,.37-.42,2.38,2.38,0,0,1-2.41-.51,8.85,8.85,0,0,0-1-.5,1.5,1.5,0,0,1,1.67-1.72c.11,0,.21.13.31.2A3.49,3.49,0,0,0,114,15a.68.68,0,0,0,1-.48.32.32,0,0,1,.35-.31,2.44,2.44,0,0,1,.54,0,4.66,4.66,0,0,0,.56,0A2.86,2.86,0,0,0,116,14a1.63,1.63,0,0,0-.49-.14,2.61,2.61,0,0,1-1.22-.36,3.45,3.45,0,0,0-1.75-.25h-.24a1.36,1.36,0,0,1,.92-1.19,7,7,0,0,0,.73-.17.55.55,0,0,0,.44-.56.31.31,0,0,1,.18-.21,1.31,1.31,0,0,1,1.2.09l.34.2a1.46,1.46,0,0,0-1.26-1.07l-.84-.12a1.77,1.77,0,0,0-1.53.6A5.82,5.82,0,0,1,111,11.93a1.64,1.64,0,0,1,.06-1.16c.2-.39.48-.75.71-1.13a1.18,1.18,0,0,0,.25-.58c0-.41.2-.57.5-.72a3.21,3.21,0,0,1,.33-.12,1,1,0,0,0-.91.1.48.48,0,0,1-.31,0,.8.8,0,0,0-1,.21c-.41.5-.79,1-1.18,1.54a2.8,2.8,0,0,0-.23.33c-.18-.42-.36-.76-.48-1.12s-.32-.7-.81-.71c-.07,0-.16-.1-.2-.18a1.15,1.15,0,0,1,0-1,1.44,1.44,0,0,0,.09-.33,1.2,1.2,0,0,0-.28.27,1.63,1.63,0,0,0-.22.55,9.21,9.21,0,0,1-.18,1.55.94.94,0,0,0,.27.89c.24.27.5.51.76.76s.5.42.74.65a1.58,1.58,0,0,1,.33,2.18,5.63,5.63,0,0,1-1.44,1.67,2.78,2.78,0,0,0-1.07,2.29c0,.45,0,.9,0,1.35a2.1,2.1,0,0,1-2.14,2.47,7.22,7.22,0,0,1-4.23-1.14.27.27,0,0,1,0-.08,8,8,0,0,1,2.94.25,7.74,7.74,0,0,0-4.46-2,5.22,5.22,0,0,1,3.65,0,7,7,0,0,0-4.1-2.11c-.11-.77.2-1.2.94-1.29s1.27-.09,1.91-.15a2.42,2.42,0,0,0,.58-.13c.26-.09.49-.23.49-.56a.7.7,0,0,0-.52-.78,8.16,8.16,0,0,0-1.31-.05c-.32,0-.63.05-1,0a1,1,0,0,1-1-1.17.74.74,0,0,1,.67-.67c.11,0,.3.13.32.23.1.44.42.57.82.66-.06-.42.23-.58.5-.75a2.78,2.78,0,0,0,1-3.13.83.83,0,0,0-1.09-.56,6.23,6.23,0,0,1-2.61.12l-1.64-.16a.32.32,0,0,1-.23-.13,1.08,1.08,0,0,0-1.08-.65A8.72,8.72,0,0,0,94,7.64l-.5.06c-2.09,1-5.43,1.59-5.86,8a2.33,2.33,0,0,1,.55-.12c-.25.28-.48.56-.7.85-.47,2.59-.88,3.33-1.2,3.27a5.34,5.34,0,0,0,.22,1.59,4.78,4.78,0,0,1,1-2.11c.26-.29.55-.54.83-.81l.06,0c0,.1-.09.19-.13.28a6.78,6.78,0,0,0-.89,3.52,3.68,3.68,0,0,0,.8,2.13c.07.09.15.17.28.32a4.91,4.91,0,0,1,.76-3.51A7.24,7.24,0,0,0,89.66,24a5.36,5.36,0,0,0,1.68,2.34A3.21,3.21,0,0,0,89.08,28a2.82,2.82,0,0,0-.26,1.55,2.8,2.8,0,0,1,3-1.41c-2.33,1-3.24,2.66-2.61,5.08A3.91,3.91,0,0,1,90,31.32a3.23,3.23,0,0,1,1.73-1.09,5,5,0,0,1-.35,2.47A6.76,6.76,0,0,1,88,36.42a6.06,6.06,0,0,0-2.48,2.28c-.42.64-.79,1.3-1.16,2a6.15,6.15,0,0,1-3.22,3.07,7.48,7.48,0,0,1-6.64-.61,2.85,2.85,0,0,1-1.46-3,2.33,2.33,0,0,1,1.3-1.8,5.6,5.6,0,0,1,2.43-.64A26,26,0,0,0,81.32,37a7.62,7.62,0,0,0,5.92-6.47,7.12,7.12,0,0,0-.84-4.94,6.35,6.35,0,0,0-4.12-2.84A19.89,19.89,0,0,0,78,22.4a8.65,8.65,0,0,1-3.8-.92,5.31,5.31,0,0,1-3.1-5A5.48,5.48,0,0,1,73,12.31a3.16,3.16,0,0,1,4-.11,2,2,0,0,1,.71,1.11,4.93,4.93,0,0,1-.93,4.53,1.92,1.92,0,0,1-1.75.8,1.23,1.23,0,0,1-1.07-1.74,1.71,1.71,0,0,1,1.94-1.18,1.73,1.73,0,0,0-1.73-.16,2.32,2.32,0,0,0-1.28,2.56A2.08,2.08,0,0,0,75,19.86a3.41,3.41,0,0,0,3.1-1.64,7.85,7.85,0,0,0,1.14-3.28,4.46,4.46,0,0,1,.15-.78,3.19,3.19,0,0,1,.08.61c0,.66-.11,1.33-.13,2a14,14,0,0,0,0,2.15A1.15,1.15,0,0,0,80.74,20c-.71-.39-.69-1-.61-1.67a10.68,10.68,0,0,1,.33-1.59,6.71,6.71,0,0,0,.35-3.2h.1c.09.52.19,1,.26,1.55s.12,1.23.26,1.83a2.35,2.35,0,0,0,3.29,1.63,1.71,1.71,0,0,0,.94-1.89,1.56,1.56,0,0,0-1.39-1.32A1.46,1.46,0,0,1,85,16.72a1.08,1.08,0,0,1-1.11,1.07,1.28,1.28,0,0,1-1.48-1.12c-.14-.76-.21-1.54-.28-2.31a4.25,4.25,0,0,0-3.54-4.26,7.09,7.09,0,0,0-5.74.69,6.29,6.29,0,0,0-3,4.76c0,.11-.05.21-.07.32v1.56c0,.3.1.61.16.91a6.15,6.15,0,0,0,3.42,4.53,10.89,10.89,0,0,0,4.46,1.19c1.14.07,2.28,0,3.4.14a4.59,4.59,0,0,1,3.56,1.89,4.51,4.51,0,0,1,.8,2.73c.31,2.86-.49,7.42-8.49,7.58h0a4.6,4.6,0,0,1-.89.11l-1.1.15a7,7,0,0,0-1.75.55,3.39,3.39,0,0,0-1.94,3,4.48,4.48,0,0,0,.89,3.26c.18.24.15.43-.1.57s-.36.12-.53.2a3.16,3.16,0,0,0-.72.34.7.7,0,0,0,0,1.11.79.79,0,0,1,.84-.76c.61-.07,1.22-.18,1.83-.19.25,0,.5.21.81.37l-.5.45a4.67,4.67,0,0,0-.6.48.72.72,0,0,0,.14,1.2,1.9,1.9,0,0,1,.17-.63,1.41,1.41,0,0,1,.56-.37c.44-.21.89-.39,1.34-.57a.37.37,0,0,1,.23,0,5,5,0,0,1,.94.32l-.4.29a4.85,4.85,0,0,0-.52.49A.74.74,0,0,0,76,48a1.9,1.9,0,0,1,.18-.69,2.19,2.19,0,0,1,.63-.43,10.73,10.73,0,0,1,1.15-.63,3.41,3.41,0,0,1,.85-.11l0,.08-.25.35c-.12.19-.27.35-.37.54a.75.75,0,0,0,.5,1.15c-.29-.66.1-1,.57-1.31a1.76,1.76,0,0,0,.37-.29A2.18,2.18,0,0,1,81,46a8,8,0,0,0,5.25-3.46,2.46,2.46,0,0,0,.94,2.54,6.75,6.75,0,0,0-1.67,3.58,2.51,2.51,0,0,1-1.2,1.75c-.77.43-1.58.81-2.38,1.18a1.27,1.27,0,0,1-1.18-.1c-.24-.15-.47-.32-.7-.47a1.31,1.31,0,0,0-2.14,1.24,4.38,4.38,0,0,0,.25,1.14c.43,1.08.89,2.15,1.35,3.22,0,.1.09.19.13.3-.45,0-.86,0-1.27.09A1.44,1.44,0,0,0,77,58.16a1.14,1.14,0,0,0,0,.28c1-.81,1.94-.44,3-.09-1.4.64-1.84,1.15-1.7,1.94a2.2,2.2,0,0,1,3.09-.15,2.47,2.47,0,0,0-1.2,2c1.09-1,2-1.11,2.77-.46A3,3,0,0,0,82,63.42a1.88,1.88,0,0,1,1.24-.67,2.8,2.8,0,0,1,1.36.21,2.84,2.84,0,0,0,0,2.35c.07-.27.11-.51.19-.73a1.68,1.68,0,0,1,1.68-1.19,2,2,0,0,1,.46.13c.42.15.42.16.38.59a1.17,1.17,0,0,0,.45,1.14,2.73,2.73,0,0,1,.35.33,1.45,1.45,0,0,1,.53.79,2.32,2.32,0,0,0,.37.69l.07,0c0-.16-.09-.31-.12-.47a1.14,1.14,0,0,1,.08-.83A1.13,1.13,0,0,0,89,64.56a.86.86,0,0,1-.14-.76c.09-.28.16-.32.39-.14l1.43,1.13a1.17,1.17,0,0,0,1.41.23s.16,0,.21.07a5.41,5.41,0,0,0,.63.64c-.11-.27-.23-.52-.33-.79a2.64,2.64,0,0,1-.19-.56,1.26,1.26,0,0,0-.49-.78c-.35-.27-.68-.55-1-.82l0-.11c.28,0,.55,0,.83,0a1,1,0,0,0,.94-.35.28.28,0,0,1,.41-.06,7,7,0,0,0,.87.42,2.91,2.91,0,0,0-.36-.47,9.4,9.4,0,0,0-1.06-.76,2.27,2.27,0,0,0-1.43-.18c-.55,0-1.1,0-1.63,0-.13,0-.24-.15-.36-.23a1.72,1.72,0,0,1,.23-.32c.18-.14.38-.26.57-.39a1,1,0,0,0,.42-.78.33.33,0,0,1,.17-.24l1.07-.1a1.07,1.07,0,0,0-.32-.17,3.9,3.9,0,0,0-2.75.18,2.39,2.39,0,0,0-.43.27,1.52,1.52,0,0,1-1.59.29,2.91,2.91,0,0,1-2.36-2.88c0-.42,0-.85,0-1.23.08-.06.1-.08.12-.08a1.29,1.29,0,0,0,1.32-1.07,2.27,2.27,0,0,1,1.57-1.62,2,2,0,0,0,.45,1.87c0-.23.08-.41.13-.6a1.27,1.27,0,0,1,1.12-1A1.43,1.43,0,0,0,90.18,52c.12-.48.54-.61,1-.73a2.53,2.53,0,0,0,.61,2.33,7.33,7.33,0,0,1,0-1.41,2.66,2.66,0,0,1,1.57-1.89,5.48,5.48,0,0,0,2.27-1.71c.36.38.7.73,1,1.1a.22.22,0,0,1,0,.18,12.15,12.15,0,0,0-.33,1.18,9.9,9.9,0,0,0,0,1.22,2.35,2.35,0,0,0-1.69,1.15,4.22,4.22,0,0,1,2.86.69c-.7.42-1.64.68-1.47,1.83,1-.31,1.54-.27,2,.18a2.37,2.37,0,0,0-.07,3.17,2,2,0,0,1,.77-1.76,1.82,1.82,0,0,1,1.38-.19,2.85,2.85,0,0,0,.87,3c0-.34-.09-.67-.09-1a1.38,1.38,0,0,1,.33-.92l1.76,1c.12,1.38.63,2,1.67,2.11a1.39,1.39,0,0,1-.46-1,.42.42,0,0,1,.42-.48,2.2,2.2,0,0,0,.66-.25c.65-.36,1.08-.26,1.38.42a7.35,7.35,0,0,1,.4,1.31,1.62,1.62,0,0,0,.53.87,1.07,1.07,0,0,1,.25.55,3.78,3.78,0,0,1,0,.7,1.43,1.43,0,0,0,.23-.91.44.44,0,0,1,.17-.34,1.55,1.55,0,0,0,.52-1.13,4.2,4.2,0,0,1,.07-.62.81.81,0,0,1,1.06-.7c.7.2,1.37.51,2,.78a3.14,3.14,0,0,1,.44.25.72.72,0,0,0,.75,0,.22.22,0,0,1,.35.07c.19.26.37.53.54.79a1.07,1.07,0,0,0-.19-1c0-.07-.14-.14-.14-.22,0-.73-.56-1-1.14-1.16a4.51,4.51,0,0,0-.89-.17,1.8,1.8,0,0,1-1-.43c-.21-.23-.18-.39.13-.43s.85,0,1.28-.06.78-.07,1-.49a.29.29,0,0,1,.23-.09l1.09.12a1.43,1.43,0,0,0-1-.54c-.1,0-.22,0-.27-.09a1.3,1.3,0,0,0-1.4-.36c-.31.06-.61.15-.92.23a.52.52,0,0,1-.21,0c-.15,0-.38,0-.42-.13a.48.48,0,0,1,.11-.44,3.24,3.24,0,0,1,.72-.61,1.19,1.19,0,0,0,.75-.92l1.17.21.08-.06a3.5,3.5,0,0,0-.35-.23,4.58,4.58,0,0,0-2.18-.68,1.14,1.14,0,0,0-.61.25c-.76.65-1.51,1.32-2.25,2a.83.83,0,0,1-1.09.15,3.25,3.25,0,0,1-1-.77A7.79,7.79,0,0,0,101,53.24a.43.43,0,0,1-.35-.34,4.8,4.8,0,0,1,.35-3.1.35.35,0,0,1,.16-.16,3.82,3.82,0,0,0,2.18-2.82l0-.08A3.33,3.33,0,0,0,105,49.26c0-.13-.07-.2-.1-.26a3.47,3.47,0,0,1-.23-2.75,3.59,3.59,0,0,0-.12-2.46c0-.09-.07-.18-.11-.28a.33.33,0,0,0,0-.08,3.16,3.16,0,0,1,1.35,2.28,3.54,3.54,0,0,0-1-3.57.48.48,0,0,1-.2-.42,1.12,1.12,0,0,0-.8-1.18,4.63,4.63,0,0,0-1.22-.24,15.13,15.13,0,0,0-3.48.31,8.39,8.39,0,0,1-4.36-.27,3.15,3.15,0,0,1-1-.63.59.59,0,0,1,.25-1.09,4.33,4.33,0,0,1,1.29-.19A18.57,18.57,0,0,0,99.29,38a4,4,0,0,0,2.39-1.41,5.73,5.73,0,0,0,.87-2.19l.07-.3a1.11,1.11,0,0,1,.12.18,2.75,2.75,0,0,0,2.41,1.43c.21,0,.26.09.28.28a1.67,1.67,0,0,1-1.12,1.92,1.58,1.58,0,0,0,2.45-.63c.1-.2.21-.39.32-.6a.85.85,0,0,1,.41.92,5.55,5.55,0,0,0,0,2.4,2.66,2.66,0,0,0,1.07,1.68,8.67,8.67,0,0,1,0-1.25c.1-.75.44-.95,1.17-.73a1.44,1.44,0,0,1,1.09,1.11,1.39,1.39,0,0,1-.55,1.45l-.09.08-.1.07a1.23,1.23,0,0,0,1.65-.94,3.18,3.18,0,0,1,.14-.61,4,4,0,0,1,.4-.46c.19.66.32,1.25.53,1.81a2.83,2.83,0,0,0,1,1.38,6.8,6.8,0,0,1-.19-1,.93.93,0,0,1,.51-.8c.5.38.94.75,1.43,1.07a2.16,2.16,0,0,1,1,1.45c0,.23.24.42.33.64a1.39,1.39,0,0,1,.1.53c0,.16-.09.32-.1.51.09-.12.22-.22.25-.34a3.17,3.17,0,0,0,.27-1.9,4.24,4.24,0,0,1-.15-1.06c0-.13.13-.26.2-.39a1.56,1.56,0,0,1,.34.27,5.5,5.5,0,0,1,.28.6,1.25,1.25,0,0,0,1.15.73.63.63,0,0,1,.66.48c.07.21.11.42.2.63a8.54,8.54,0,0,0-.5-3.48,1.8,1.8,0,0,0,1.19-.5s.17,0,.24,0a1.64,1.64,0,0,1,.85.81v-.3A1.61,1.61,0,0,0,121,40.48Z"/><path d="M25.45,112.23v4.1H7.36a2.18,2.18,0,0,0-1.67.61A1.93,1.93,0,0,0,5,118.46v5.88a2,2,0,0,0,.69,1.54,2.53,2.53,0,0,0,1.67.6H21.09v-2.84H14.84v-3.87H26.1v10.8H5.89A6,6,0,0,1,1.71,129,5,5,0,0,1,0,125.21v-7.63a5,5,0,0,1,1.71-3.77,6,6,0,0,1,4.18-1.58Z"/><path d="M33.51,126.53v4h-5v-4Z"/><path d="M40.66,112.23l5.42,12.28,5.4-12.14h5l5.39,12.14,5.42-12.28h5.42l-8.14,18.34h-5L54,118.45l-5.6,12.12h-5l-8.14-18.34Z"/><path d="M79.44,112.23v18.34h-5V112.23Z"/><path d="M86.85,112.23l15.84,12.88V112.23h5v18.34h-5L86.85,117.72v12.85h-5V112.23Z"/><path d="M115.13,112.23,131,125.11V112.23h5v18.34h-5l-15.83-12.85v12.85h-5V112.23Z"/><path d="M161,112.23v4.1H143.39v3h15.27v4H143.39v3.15H161v4.09H138.38V112.23Z"/><path d="M181.4,112.23A6.52,6.52,0,0,1,186,114a5.46,5.46,0,0,1,.26,8,6.84,6.84,0,0,1-4.06,1.88l6,6.72H182.3l-5.52-6.66h-8.35v6.66h-5V112.23Zm-13,7.65h12.5a1.91,1.91,0,0,0,1.4-.51,1.69,1.69,0,0,0,.56-1.28,1.63,1.63,0,0,0-.56-1.28,1.66,1.66,0,0,0-1.4-.49h-12.5Z"/><path d="M31.08,139.49l3.65,5.75H33l-.8-1.26H28.35l-.8,1.26H25.86l3.65-5.75Zm-1.95,3.28h2.34l-1.17-1.85Z"/><path d="M41.53,139.49A2.05,2.05,0,0,1,43,140a1.7,1.7,0,0,1,.59,1.29,1.67,1.67,0,0,1-.51,1.22,2.11,2.11,0,0,1-1.28.6l1.87,2.1H41.8l-1.72-2.08H37.45v2.08H35.88v-5.75Zm-4.08,2.4h3.93a.6.6,0,0,0,.44-.16.51.51,0,0,0,.17-.4.52.52,0,0,0-.17-.41.55.55,0,0,0-.44-.15H37.45Z"/><path d="M52.57,139.49v1.28h-3v4.47H48v-4.47H45v-1.28Z"/><path d="M55.54,139.49v5.75H54v-5.75Z"/><path d="M58.51,139.49l5,4v-4h1.57v5.75H63.48l-5-4v4H56.94v-5.75Z"/><path d="M68,139.49l5,4v-4h1.58v5.75H73l-5-4v4H66.46v-5.75Z"/><path d="M88.81,139.49v1.28H83.13a.73.73,0,0,0-.52.2.58.58,0,0,0-.22.48v1.84a.61.61,0,0,0,.22.48.73.73,0,0,0,.52.19h4.31v-.89h-2v-1.22H89v3.39H82.67a1.87,1.87,0,0,1-1.31-.49,1.55,1.55,0,0,1-.54-1.19v-2.39a1.56,1.56,0,0,1,.54-1.19,1.92,1.92,0,0,1,1.31-.49Z"/><path d="M95.88,140.22a1.64,1.64,0,0,1,1.17.44,1.3,1.3,0,0,1,.48,1.05v2a1.34,1.34,0,0,1-.48,1.06,1.66,1.66,0,0,1-1.17.43H92.06a1.71,1.71,0,0,1-1.17-.43,1.39,1.39,0,0,1-.47-1.06v-2a1.4,1.4,0,0,1,.48-1.05,1.65,1.65,0,0,1,1.16-.44Zm-3.82,1.37a.45.45,0,0,0-.16.36v1.57a.44.44,0,0,0,.16.35.67.67,0,0,0,.39.15h3a.65.65,0,0,0,.4-.15.44.44,0,0,0,.16-.35V142a.46.46,0,0,0-.17-.36.48.48,0,0,0-.39-.14h-3A.51.51,0,0,0,92.06,141.59Z"/><path d="M100.43,140.22V144h4.46v1.22h-6v-5Z"/><path d="M112.33,140.22v1.23h-4.55v.81h3.93v1.2h-3.93v1.78h-1.49v-5Z"/><path d="M124.68,139.49a2.15,2.15,0,0,1,1,.22,1.88,1.88,0,0,1,.74.62,1.32,1.32,0,0,1,.27.84v2.39a1.28,1.28,0,0,1-.28.85,1.9,1.9,0,0,1-.73.61,2.13,2.13,0,0,1-1,.22h-6.1v-5.75ZM120.15,144h4.2a.85.85,0,0,0,.53-.19.66.66,0,0,0,.21-.48v-1.84a.6.6,0,0,0-.21-.48.68.68,0,0,0-.53-.2h-4.2Z"/><path d="M134.27,140.22v1.23h-4.71v.66h4.08v1.2h-4.08V144h4.71v1.22h-6.19v-5Z"/><path d="M137.37,140.22h3.11a1.68,1.68,0,0,1,1.2.46,1.39,1.39,0,0,1,.49,1.08v0h-1.44v0a.27.27,0,0,0-.1-.22.36.36,0,0,0-.24-.09h-2.78a.36.36,0,0,0-.24.09.27.27,0,0,0-.1.22.34.34,0,0,0,.1.22.36.36,0,0,0,.24.09h3a1.77,1.77,0,0,1,1.23.47,1.5,1.5,0,0,1,0,2.24,1.76,1.76,0,0,1-1.23.46H137.4a1.72,1.72,0,0,1-1.22-.46,1.47,1.47,0,0,1-.52-1.12v0h1.41v0a.38.38,0,0,0,.11.26.42.42,0,0,0,.28.1h3.06a.43.43,0,0,0,.29-.1.33.33,0,0,0,.11-.26.34.34,0,0,0-.12-.26.32.32,0,0,0-.28-.1h-3.15a1.71,1.71,0,0,1-1.19-.45,1.46,1.46,0,0,1-.5-1.1,1.37,1.37,0,0,1,.49-1.07,1.83,1.83,0,0,1,1.18-.47h0Z"/><path d="M145.28,140.22v5H143.8v-5Z"/><path d="M153.62,140.22v1.23h-4.9a.52.52,0,0,0-.4.14.45.45,0,0,0-.16.36v1.57a.43.43,0,0,0,.17.35.62.62,0,0,0,.39.15h3.59v-.62h-1.67v-1.17h3.15v3h-5.46a1.72,1.72,0,0,1-1.18-.43,1.43,1.43,0,0,1-.47-1.06v-2a1.4,1.4,0,0,1,.48-1.05,1.66,1.66,0,0,1,1.17-.44Z"/><path d="M156.63,140.22l4.13,3.35v-3.35h1.48v5H160.8l-4.13-3.35v3.35h-1.48v-5Z"/></g></g></svg>