<svg xmlns="http://www.w3.org/2000/svg" viewBox="0 0 196.17 151.44"><defs><style>.cls-1{fill:#f6458a;fill-rule:evenodd;}</style></defs><g id="圖層_2" data-name="圖層 2"><g id="圖層_1-2" data-name="圖層 1"><path class="cls-1" d="M117.55,92.62c-.4-.47-.74-.91-1.12-1.3-4.55-4.68-9.11-9.33-13.66-14a22.53,22.53,0,0,1-2.47-2.7c-1.1-1.61-2.53-1.56-4.2-1.26-4,.74-8.12,1.39-12.17,2.08l-13.34,2.3c-1.73.29-3.47.54-5.39.83,1.37-2.63,2.69-5.18,4-7.71q4.3-8.13,8.64-16.25c.87-1.63,1.73-3.29,2.67-4.88a2,2,0,0,0,0-2.17Q73.14,33.39,65.76,19.18c-.1-.18-.17-.39-.32-.72l7.84,1.35,11.29,2,11.05,1.94a9.64,9.64,0,0,0,2.14.38,3.22,3.22,0,0,0,1.92-.73q10.95-10.95,21.81-22c.33-.34.61-.73,1.17-1.39.33,2.21.61,4,.88,5.86q.63,4.35,1.25,8.7c.38,2.73.73,5.46,1.12,8.19a65.62,65.62,0,0,1,1.14,8.43c0,2.53,1.56,3.18,3.32,4,8.73,4.33,17.43,8.71,26.15,13.07l1.3.66L144,55.72c-5.29,2.57-10.56,5.17-15.89,7.64-1.23.57-1,1.61-1.09,2.4-.73,4.34-1.26,8.7-1.91,13-.56,3.78-1.2,7.56-1.81,11.33a7.43,7.43,0,0,0-.22,1.91A1.44,1.44,0,0,0,124,93a11.46,11.46,0,0,1,6,3.71c2.27,2.67,3.3,5.71,2.26,9.19-.43,1.47-1.61,2-3.13,1.73-2-.31-4.12-.47-6.19-.63-1.6-.13-3.21-.17-4.82-.28-1-.08-1.2.53-1.06,1.32a6,6,0,0,0,5.5,4.49,9.77,9.77,0,0,0,4.76-1c.72-.34,1.51-1.07,2.36-.16a2.71,2.71,0,0,1,.5,3.24c-1,2-2.83,3.07-4.89,3.78-5.61,1.9-10.85,1.35-15.13-3-3.57-3.59-4.47-8.21-3.25-13s4.61-8,9.48-9.35C116.68,92.93,117,92.79,117.55,92.62ZM85.27,64.06a3.45,3.45,0,0,0,.76,0c5-.85,10-1.74,15-2.58.58-.1,1.43-.15,1.77.18,2.26,2.19,4.39,4.51,6.6,6.74,1.77,1.79,3.58,3.53,5.44,5.36.23-1.67.41-3.21.64-4.74.49-3.32.93-6.65,1.56-9.93.19-1-.32-2.31,1.1-3,2.18-1,4.29-2.06,6.43-3.11l8.58-4.26-1.4-.75c-4.36-2.17-8.7-4.39-13.09-6.49a2.22,2.22,0,0,1-1.41-2.2c0-.3,0-.6-.08-.9l-1.23-8.42-.9-6.3-.32-.18a11,11,0,0,1-.87,1.16c-3.47,3.51-7,7-10.46,10.51A2.09,2.09,0,0,1,102,36c-4.15-.69-8.28-1.48-12.41-2.22-1.34-.24-2.68-.44-4-.66,0,.25,0,.35,0,.41,2.44,4.67,4.86,9.35,7.33,14a2.06,2.06,0,0,1,0,2.27c-1.88,3.36-3.65,6.76-5.46,10.16C86.71,61.23,86,62.57,85.27,64.06Zm38.2,36a7.11,7.11,0,0,0-.82-2c-1.46-1.81-4.19-1.23-5.14,1-.76,1.83-.08,2.84,1.89,2.86a12.18,12.18,0,0,1,1.71,0C122.73,102.26,123.28,101.8,123.47,100.06Zm20.05-51.38A2.93,2.93,0,0,0,140.87,46,3.11,3.11,0,0,0,138,48.91a2.85,2.85,0,0,0,2.84,2.6A2.7,2.7,0,0,0,143.52,48.68ZM78.93,25.75a2.55,2.55,0,0,0-2.7,2.67A2.75,2.75,0,0,0,79,31.18a3,3,0,0,0,2.73-2.79A2.84,2.84,0,0,0,78.93,25.75Zm21.33,1.32a2.79,2.79,0,0,0-2.74,2.72,3.08,3.08,0,0,0,2.89,2.76A3,3,0,0,0,103,29.68,2.62,2.62,0,0,0,100.26,27.07Zm20.13,55.76c.23-1.43-1-2.7-2.71-2.9-1.22-.14-2.8,1.49-2.8,2.73a2.91,2.91,0,0,0,2.73,2.76A2.57,2.57,0,0,0,120.39,82.83Zm1.85-20a2.79,2.79,0,0,0,2.88-2.68,2.58,2.58,0,0,0-2.76-2.58,2.49,2.49,0,0,0-2.76,2.56A2.56,2.56,0,0,0,122.24,62.81ZM74.13,69.2A2.79,2.79,0,0,0,76.77,72a2.76,2.76,0,1,0,.09-5.52A2.8,2.8,0,0,0,74.13,69.2ZM118,17.08a2.42,2.42,0,0,0,2.63-2.66A2.71,2.71,0,0,0,118,11.66a3.11,3.11,0,0,0-2.82,2.82A2.89,2.89,0,0,0,118,17.08Zm5,22.07a2.9,2.9,0,0,0,2.84-2.64,3.21,3.21,0,0,0-2.82-2.86,2.92,2.92,0,0,0-2.69,2.67A2.58,2.58,0,0,0,123.06,39.15ZM103,67.78a2.63,2.63,0,1,0-5.25,0,2.63,2.63,0,1,0,5.25,0ZM86.54,45.73A2.63,2.63,0,1,0,86.49,51a2.63,2.63,0,1,0,.05-5.25Zm23.95-21.29a2,2,0,0,0,2-1.91,2,2,0,0,0-1.94-2,2,2,0,0,0-2,1.92C108.54,23.8,109.14,24.43,110.49,24.44Zm23.8,17.86a2.47,2.47,0,0,0-2.15-2.08,2.5,2.5,0,0,0-2,2.08,2.09,2.09,0,0,0,4.17,0ZM107.51,75.58a1.86,1.86,0,0,0,1.91,2,2,2,0,1,0,0-3.94A1.86,1.86,0,0,0,107.51,75.58Zm13-5.94a1.87,1.87,0,0,0-1.93,1.94,2,2,0,1,0,3.94-.07A1.88,1.88,0,0,0,120.48,69.64ZM89.37,71a2.11,2.11,0,0,0,2.1-2,2,2,0,0,0-2-1.93,2,2,0,0,0-2.1,2A2.27,2.27,0,0,0,89.37,71ZM84.12,59c0-1.33-.58-1.94-1.85-1.95a2,2,0,0,0-2.09,1.86,2.12,2.12,0,0,0,2,2.08A1.94,1.94,0,0,0,84.12,59Zm47.67-1.16a2,2,0,0,0,2-1.94,2,2,0,0,0-2-2,2,2,0,0,0-2,2A1.86,1.86,0,0,0,131.79,57.82ZM92,29.3a2,2,0,0,0-2-2,1.88,1.88,0,0,0-2,1.78A2,2,0,1,0,92,29.3Zm28.49-5.38a1.85,1.85,0,0,0-1.94,1.94,2,2,0,1,0,3.94,0A2,2,0,0,0,120.49,23.92ZM83.24,39.69a2,2,0,0,0,1.92-1.87A2.36,2.36,0,0,0,83,35.75a2,2,0,0,0-1.79,2C81.23,39.11,81.83,39.7,83.24,39.69Z"/><path class="cls-1" d="M55.63,94.52a18.45,18.45,0,0,1,2.66.35c1.73.49,2.3,2,1.22,3.4a2.36,2.36,0,0,0-.11,3.09c.64.93,1.28,1.86,2,2.71.56.65,1.36.85,1.83,0a38.33,38.33,0,0,0,2.15-4.76c.12-.34-.41-1-.77-1.4-1.61-1.77-1.29-3.45,1-4.18A15.78,15.78,0,0,1,74,93.07a2.18,2.18,0,0,1,2,1.82,1.8,1.8,0,0,1-1.44,2c-2.57.93-3.49,3.13-4.35,5.43q-2.73,7.25-5.53,14.45A11.91,11.91,0,0,1,63.48,119c-1.16,1.77-2.62,2-4.08.43-1.73-1.83-3.29-3.83-4.91-5.75-.82-1-1.62-1.94-2.42-2.92-.67-.81-1.42-.76-1.9.08a21.62,21.62,0,0,0-1.52,3.4c-.84,2.26-1.55,4.56-2.4,6.81s-2.83,2.76-4.55.93c-2.57-2.74-5-5.62-7.49-8.38-2.27-2.48-4.57-4.94-7-7.29-.55-.52-1.57-.56-2.34-.9s-1.5-.53-1.84-1.07a1.62,1.62,0,0,1,.5-2.31,35.37,35.37,0,0,1,5-2.65,20.89,20.89,0,0,1,8.71-1.54,6.62,6.62,0,0,1,2.46.66,1.56,1.56,0,0,1,.86,2.27,2.43,2.43,0,0,0,.45,3c.89,1,1.75,1.93,2.64,2.88a1,1,0,0,0,1.65-.11c1.49-2.26,1.92-4.33-.91-5.48-.91-.37-1.78-.81-1.79-2a2.07,2.07,0,0,1,1.69-2c2.55-.74,5.1-1.46,7.68-2.06A27,27,0,0,1,55.63,94.52Z"/><path class="cls-1" d="M170.24,126.72c-.44-2.62-.78-5-1.25-7.37-.82-4.07-1.66-8.14-2.66-12.18a5,5,0,0,0-1.78-2.37,2.37,2.37,0,0,1-1-2.72,2.53,2.53,0,0,1,2.43-1.66,27.78,27.78,0,0,1,12.92,2.24,5.19,5.19,0,0,1,1.79,1.29,2.2,2.2,0,0,1-.2,3.44,3.59,3.59,0,0,0-1.07,4.11,22.68,22.68,0,0,0,.93,2.93c.31.7.88.85,1.62.42a5.42,5.42,0,0,0,2.39-6.57,2.11,2.11,0,0,1,1.73-2.89,11.44,11.44,0,0,1,6.72,1.06,15.57,15.57,0,0,1,2.53,1.52,1.64,1.64,0,0,1,.6,2.19c-.35.64-1.16,1.47-1.75,1.45-3.41-.07-5.29,2.14-7,4.48-3.16,4.23-6.12,8.61-9.34,12.78-2.35,3-5.11,5.68-9.14,6.39-3.21.57-8.25-.87-9.67-4.32a5.46,5.46,0,0,1,.31-5,4.29,4.29,0,0,1,4.68-2.08c1.49.34,2.53,1.86,2.63,3.87a3.25,3.25,0,0,0,0,1c.21.56.54,1.48.87,1.51a2.32,2.32,0,0,0,1.85-.78A10,10,0,0,0,170.24,126.72Z"/><path class="cls-1" d="M95.18,105.92c-1.83,0-3.67,0-5.5,0-1.5,0-1.83.53-1.36,2a6.12,6.12,0,0,0,4.85,3.58A8.57,8.57,0,0,0,98.58,110c.77-.52,1.62-1.18,2.58-.3a3,3,0,0,1,.56,3.36c-1,2.25-2.94,3.26-5,4.13-4.75,2-9.39,2-13.82-1a13.62,13.62,0,0,1-2.47-19.73,13.28,13.28,0,0,1,9.08-4.73,12.56,12.56,0,0,1,9,2.09,11.22,11.22,0,0,1,4.7,7.62,7.32,7.32,0,0,1-.41,2.9,2.11,2.11,0,0,1-2.28,1.55C98.78,105.91,97,105.92,95.18,105.92Zm-4.65-4.74a5.08,5.08,0,0,1,.78,0c2,.32,3.28-.94,2-3.39a3,3,0,0,0-3.27-1.55c-1.28.39-2.73,2.45-2.49,3.64.36,1.65,1.7,1.27,2.83,1.29Z"/><path class="cls-1" d="M148.24,122.79c-4-.28-7.13-1.07-9-4.21a8.28,8.28,0,0,1-1.05-5.53c.43-3,.73-5.92,1.1-8.87.12-.94.23-1.88.43-2.8s.18-1.55-1.05-1.53a17.76,17.76,0,0,1-2.3-.24c-.7-.07-1-.37-1.06-1.16-.07-1.62.32-2.73,2-3.43,3.76-1.53,7.44-3.23,11.1-5,1.53-.72,3-.32,4.42,0a1.13,1.13,0,0,1,.61.9c-.11,1.46-.32,2.91-.5,4.37-.12.91.24,1.31,1.18,1.42,1.53.18,3.05.49,4.57.79,1,.2,1.74.67,1.35,1.92-.07.24,0,.53-.05.78-.92,3.38-1,3-3.95,2.38-1.05-.21-2.1-.42-3.15-.61s-1.35.6-1.48,1.29c-.59,3.13-1.26,6.25-1.56,9.41-.22,2.32,1.29,4.12,3.91,3.26a2.78,2.78,0,0,1,2.24.11,2.23,2.23,0,0,1,.35,2.73,4.88,4.88,0,0,1-3.08,2.65C151.46,122.09,149.53,122.46,148.24,122.79Z"/><path class="cls-1" d="M2.59,124.64c.06-1.47.83-2.13,2.17-1.62a40.82,40.82,0,0,1,3.68,1.85,15,15,0,0,0,2.13.94,2.13,2.13,0,0,0,2.61-1.36c.38-1.15-.37-1.77-1.32-2.06-1.79-.56-3.64-1-5.45-1.51A8.78,8.78,0,0,1,0,112.27a8.44,8.44,0,0,1,6.2-7.63c1.75-.55,3.61-.71,5.4-1.1a5.94,5.94,0,0,0,1.88-.71c1.53-1,2.3-1,3.87.06a7.92,7.92,0,0,1,3.43,4.28,3.26,3.26,0,0,1-.32,2.49,2.13,2.13,0,0,1-2.62.79c-1.38-.6-2.69-1.35-4.1-1.83a3.91,3.91,0,0,0-2.46-.06,1.9,1.9,0,0,0-.93,1.61,2.53,2.53,0,0,0,1.36,1.66c1.78.62,3.65,1,5.46,1.46,3.11.88,5.82,2.23,6.77,5.72,1,3.8-1.05,7.35-4.28,9.28-1.95,1.16-4.11,1.42-6.26,1.82a17.2,17.2,0,0,0-3.59.92,2.71,2.71,0,0,1-3-.23C4.79,129.16,2.93,127.39,2.59,124.64Z"/><path class="cls-1" d="M86.54,146.68c-4.22.07-7.22-1.34-9.08-4.71a8.21,8.21,0,0,1,3.11-11.53c4.13-2.42,10.2-2.53,13.76,1.58s2.91,9.32-1.22,12.45A9.59,9.59,0,0,1,86.54,146.68Zm0-15.92c-1.27,2.87-3.48,4-6.5,4.24,2.47,1.71,3,4,2.29,6.82,2.66-1.89,5.08-1.38,7.6.19-1.24-3.16.33-5.08,3.08-6.86C89.64,135,87.49,133.81,86.53,130.76Z"/><path class="cls-1" d="M57.75,151.44c-4.48-.05-7.67-1.49-9.43-5.27s-.15-8.35,3.81-10.83a14.66,14.66,0,0,1,7.49-2.09,4,4,0,0,0,1.39-.19,3.06,3.06,0,0,1,4.4,2.78,2.91,2.91,0,0,1-.87,2.23,3.37,3.37,0,0,1-2.5,0c-1.4-.47-2.42-1.76-4.12-1.69-2.42.11-4.18,1.69-4,4.1a7.4,7.4,0,0,0,4.28,6.63,5.53,5.53,0,0,0,2.41.3A1.56,1.56,0,0,0,62,145.56a1.22,1.22,0,0,0-1.82-.84c-.34.12-1.26-.33-1.28-.56,0-.58.13-1.46.53-1.71a10.45,10.45,0,0,1,3.17-1.39c1.73-.43,3.49-1.12,5.3-.41.38.15.88.57.91.92a2.72,2.72,0,0,1-.55,1.32c-.3.51-.84,1-1,1.49-.85,3.78-3.41,5.77-6.95,6.72A17.17,17.17,0,0,1,57.75,151.44Z"/><path class="cls-1" d="M142.2,147c0-.43,0-.9,0-1.37.08-1.17-.63-1.66-1.62-1.82s-1.14.65-1.28,1.37a8.44,8.44,0,0,0-.47,2.26c0,.57.57,1.12.9,1.66.24.39.52.77.77,1.15-.46.3-1,.89-1.38.85-1.91-.22-3.81-.57-5.7-1a8.75,8.75,0,0,1-2.41-.85,1.68,1.68,0,0,1-.83-1.24c0-.39.64-.76,1-1.1s1.28-.65,1.4-1.11c.82-3.19,1.55-6.41,2.17-9.63.1-.53-.48-1.18-.77-1.77-.19-.41-.66-1-.53-1.18a1.72,1.72,0,0,1,1.3-.73c1.65.27,3.27.69,4.88,1.09,3.23.84,6.45,1.74,9.69,2.52a2.17,2.17,0,0,1,1.72,2c.18,1.14.26,2.4-.86,3.2a1.17,1.17,0,0,1-1.93-.48c-.95-2.4-2.93-3.22-5.2-3.75a1.3,1.3,0,0,0-1.74.8,5.19,5.19,0,0,0-.45,1.06c-.19.72-.9,1.55.17,2.13a1.83,1.83,0,0,0,2.64-.49,1.84,1.84,0,0,1,1.35-.63c.84.07.87.81.83,1.5a4.56,4.56,0,0,1,0,1.05,30,30,0,0,1-1.33,3.73A1.62,1.62,0,0,1,142.2,147Z"/><path class="cls-1" d="M122.55,143a5.31,5.31,0,0,1-2.34,4.4,2.1,2.1,0,0,1-1.33.16c-2.68-.38-5.34-.83-8-1.19-1.29-.17-2.6-.14-3.89-.32a1.44,1.44,0,0,1-1-.83c-.08-.22.36-.85.65-.93a2.22,2.22,0,0,0,1.61-2.27c.18-3.08.21-6.18.29-9.27,0-.85-.48-1.17-1.22-1.41-.43-.15-.75-.61-1.12-.92.38-.38.69-.94,1.15-1.11,2.17-.82,4.42-.5,6.64-.19a12.82,12.82,0,0,1,3,.82,1.41,1.41,0,0,1,.73,1.05c0,.27-.51.77-.84.82-1.55.26-1.62,1.36-1.73,2.59-.19,2.32-.47,4.63-.75,6.94-.26,2.08.83,3,2.47,3a3.37,3.37,0,0,0,3.27-1.65c.28-.48.9-1.17,1.29-1.12A1.27,1.27,0,0,1,122.55,143Z"/></g></g></svg>