<svg xmlns="http://www.w3.org/2000/svg" viewBox="0 0 215.08 160.18"><defs><style>.cls-1{fill:#c2000b;}.cls-2{fill:#0f0b0d;}.cls-3{fill:#333;}.cls-4{fill:#fff;}</style></defs><g id="圖層_2" data-name="圖層 2"><g id="圖層_1-2" data-name="圖層 1"><polygon class="cls-1" points="126.42 45.46 139.47 26.76 157.31 45.46 126.42 45.46"/><polygon points="157.31 45.46 139.47 64.16 126.42 45.46 157.31 45.46"/><polygon class="cls-2" points="120.64 27.32 128.96 39.24 138.5 25.58 120.64 0 120.64 27.32"/><polygon points="120.85 63.62 129.17 51.7 138.71 65.36 120.85 90.94 120.85 63.62"/><polygon class="cls-2" points="86.81 45.46 99.86 32.41 117.7 45.46 86.81 45.46"/><polygon points="117.7 45.46 99.86 58.51 86.81 45.46 117.7 45.46"/><polygon class="cls-2" points="81.03 32.8 89.35 41.12 98.89 31.59 81.03 13.73 81.03 32.8"/><polygon points="81.23 58.14 89.56 49.82 99.1 59.35 81.23 77.21 81.23 58.14"/><path d="M28.88,144.63H14l2-9.21h11a.71.71,0,0,0,.8-.7l1.86-8.13c.05-.45-.16-.67-.63-.67H15.44l-4.17,18.71H0L10.1,99.14H21.38l-4,18h13a.92.92,0,0,0,1-.76l1.56-7.31c.14-.49,0-.73-.53-.73H22l2.07-9.24H38.32a6.39,6.39,0,0,1,5.17,2q1.93,2.28,1.16,6l-2,8.87a6.5,6.5,0,0,1-1.8,3.1,7.51,7.51,0,0,1-3.27,1.94v.16a3.89,3.89,0,0,1,3.43,4.91l-2.33,10.37a10.38,10.38,0,0,1-3.7,6A9.41,9.41,0,0,1,28.88,144.63Z"/><path d="M68,144.63h-11l1.57-7h8.66a.6.6,0,0,0,.61-.5L72,118.53c.1-.33,0-.5-.42-.5H61.45a.62.62,0,0,0-.62.5L55,144.63h-1.8c-2.33,0-3.89-.66-4.7-2a5.66,5.66,0,0,1-.39-4.33l4.63-21a8,8,0,0,1,2.53-4.43,7.86,7.86,0,0,1,5.39-1.87h14.8a5.4,5.4,0,0,1,4.39,1.63q1.35,1.64.71,4.67l-4.65,21a8,8,0,0,1-2.61,4.53A7.85,7.85,0,0,1,68,144.63Z"/><path d="M102.41,144.63h-11l1.58-7h8.66a.61.61,0,0,0,.61-.5l4.14-18.64c.09-.33-.05-.5-.42-.5H95.82a.61.61,0,0,0-.62.5l-5.81,26.1H87.6q-3.5,0-4.7-2a5.66,5.66,0,0,1-.39-4.33l4.62-21a8,8,0,0,1,2.54-4.43,7.85,7.85,0,0,1,5.38-1.87h14.81q3,0,4.38,1.63t.72,4.67l-4.65,21a8,8,0,0,1-2.61,4.53A7.85,7.85,0,0,1,102.41,144.63Z"/><path d="M136.77,144.63h-11l1.57-7H136a.62.62,0,0,0,.62-.5l4.13-18.64c.1-.33,0-.5-.42-.5H130.18a.6.6,0,0,0-.61.5l-5.81,26.1H122q-3.5,0-4.7-2a5.66,5.66,0,0,1-.4-4.33l4.63-21a8.07,8.07,0,0,1,2.53-4.43,7.87,7.87,0,0,1,5.39-1.87h14.81q3,0,4.38,1.63t.71,4.67l-4.65,21a7.93,7.93,0,0,1-2.61,4.53A7.83,7.83,0,0,1,136.77,144.63Z"/><path d="M167.35,137.71l-1.55,6.92h-9.61q-3.49,0-4.7-2a5.61,5.61,0,0,1-.4-4.33l.81-3.74h8.15l-.54,2.63c-.1.33,0,.49.39.49Zm2.49,6.92h-2l2.61-11.69c.07-.41-.07-.63-.39-.66l-8.17-1.75a15.09,15.09,0,0,0-1.57-.34l-1.56-.32-1.3-.38a4.45,4.45,0,0,1-1.27-.56c-.23-.18-.53-.44-.88-.77a2.14,2.14,0,0,1-.65-1.11,7.54,7.54,0,0,1-.15-1.49,8.22,8.22,0,0,1,.22-2l1.38-6.2a7.65,7.65,0,0,1,7.89-6.3h1.73l-2.59,11.49c-.06.41.06.63.37.66l8.24,1.65c.25,0,.66.11,1.25.24l1.25.25c.25,0,.64.14,1.15.28a8.4,8.4,0,0,1,1.1.34,9.79,9.79,0,0,1,.9.46,2.32,2.32,0,0,1,.79.63l.53.8a2.89,2.89,0,0,1,.38,1,7.62,7.62,0,0,1,0,1.31,10,10,0,0,1-.24,1.61l-1.4,6.5a8.06,8.06,0,0,1-2.63,4.53A7.46,7.46,0,0,1,169.84,144.63ZM173.36,118h-7.21l1.57-6.91H177a5.46,5.46,0,0,1,4.41,1.63q1.35,1.64.69,4.67l-.79,3.69h-8.07l.54-2.58C173.87,118.15,173.73,118,173.36,118Z"/><path d="M215.08,111.07l-1.57,7h-9.77l-5.91,26.6h-8.31l5.9-26.6h-9.76l1.55-7Z"/><path class="cls-1" d="M44.65,107.21q.78-3.76-1.16-6a6.39,6.39,0,0,0-5.17-2H24.11L22,108.38H32.38c.49,0,.67.24.53.73l-1.56,7.31a.92.92,0,0,1-1,.76h-13l4-18H10.1L0,144.63H11.27l4.17-18.71h6.18c7.7-.89,12.83-2.84,16.09-4.62a10.18,10.18,0,0,0,2.82-1.8c.12-.11.24-.2.36-.32a6.5,6.5,0,0,0,1.8-3.1Z"/><path class="cls-3" d="M102.22,154.4c0,3.19-1.47,5.78-3.28,5.78H12.1c-1.81,0-3.28-2.59-3.28-5.78h0c0-3.19,1.47-5.78,3.28-5.78H98.94c1.81,0,3.28,2.59,3.28,5.78Z"/><path class="cls-4" d="M18.17,157.28H16.78l-.28-1H14.92l-.27,1h-1.4l1.54-5.72h1.85Zm-2-2.13-.49-1.83-.49,1.83Z"/><path class="cls-4" d="M23.8,157.28H22.28L21,155.22H20.7v2.06H19.33v-5.72h2.6a1.61,1.61,0,0,1,.85.23,1.67,1.67,0,0,1,.58.57,1.44,1.44,0,0,1,.22.78v.5a1.72,1.72,0,0,1-.06.44,1.51,1.51,0,0,1-.7,1,1.85,1.85,0,0,1-.33.14Zm-1.87-3.12c.05,0,.11,0,.18-.13a.6.6,0,0,0,.11-.39v-.5a.58.58,0,0,0-.26-.49.2.2,0,0,0-.14,0H20.69v1.55Z"/><path class="cls-4" d="M27.66,157.28H26.29v-4.67H24.72v-1.05h4.51v1.05H27.66Z"/><path class="cls-4" d="M31.76,157.28H30.39v-5.72h1.37Z"/><path class="cls-4" d="M37.69,157.28H36.36l-2-3.06v3.06H33v-5.72h1.33l2,3.08v-3.08h1.37Z"/><path class="cls-4" d="M43.63,157.28H42.3l-2-3.06v3.06H39v-5.72h1.33l2,3.08v-3.08h1.38Z"/><path class="cls-4" d="M49.9,157.28h-.73a2.05,2.05,0,0,1-1-.22,1.84,1.84,0,0,1-.67-.59,1.33,1.33,0,0,1-.25-.79v-2.61a1.31,1.31,0,0,1,.25-.8,1.84,1.84,0,0,1,.67-.59,2.05,2.05,0,0,1,1-.22h.73a2,2,0,0,1,1,.22,2,2,0,0,1,.68.59,1.4,1.4,0,0,1,.18.34,3,3,0,0,1,.06.75H50.35v-.24a.58.58,0,0,0-.15-.4.38.38,0,0,0-.3-.13h-.73a.42.42,0,0,0-.31.13.48.48,0,0,0-.14.35v2.61a.45.45,0,0,0,.14.33.39.39,0,0,0,.31.14h.75a.39.39,0,0,0,.31-.14.45.45,0,0,0,.14-.33v-.48h-.52v-1h1.94v1.61h0a1.39,1.39,0,0,1-.25.72,1.85,1.85,0,0,1-.68.58A2,2,0,0,1,49.9,157.28Z"/><path class="cls-4" d="M55.28,157.32a4.46,4.46,0,0,1-.88-.09,2.31,2.31,0,0,1-.47-.18,1.8,1.8,0,0,1-1-1.67v-1.86a1.81,1.81,0,0,1,1-1.68,1.84,1.84,0,0,1,.47-.17,4.48,4.48,0,0,1,.88-.1,4.11,4.11,0,0,1,.85.1,1.33,1.33,0,0,1,.46.18,1.91,1.91,0,0,1,.71.7,2,2,0,0,1,.22,1v1.86a2,2,0,0,1-.22,1,1.93,1.93,0,0,1-.71.71A2.59,2.59,0,0,1,55.28,157.32Zm0-1.12a1.88,1.88,0,0,0,.52-.08.72.72,0,0,0,.39-.74v-1.86c0-.4-.13-.64-.39-.73a1.39,1.39,0,0,0-.53-.1,1.41,1.41,0,0,0-.49.09.57.57,0,0,0-.24.14.87.87,0,0,0-.2.6v1.86a.83.83,0,0,0,.2.59.51.51,0,0,0,.23.15A1.81,1.81,0,0,0,55.25,156.2Z"/><path class="cls-4" d="M62.25,157.28H58.74v-5.72h1.37v4.67h2.14Z"/><path class="cls-4" d="M64.78,157.28H63.41v-5.72h3.5v1.05H64.78v1.29h1.83v1H64.78Z"/><path class="cls-4" d="M71.73,157.29H70.48v-5.72h2.29a2.23,2.23,0,0,1,1.09.27,2,2,0,0,1,.78.69,1.66,1.66,0,0,1,.29.95v1.88a1.75,1.75,0,0,1-.29,1,2.21,2.21,0,0,1-.78.7,2.34,2.34,0,0,1-1.09.26Zm1-1.12a.75.75,0,0,0,.55-.24.77.77,0,0,0,.24-.58v-1.84a.78.78,0,0,0-.24-.58.75.75,0,0,0-.55-.24h-.93v3.48Z"/><path class="cls-4" d="M79.56,157.28H76.08v-5.72h3.48v1.05H77.44v1.29h1.81v1H77.44v1.28h2.12Z"/><path class="cls-4" d="M82.74,157.32a2.43,2.43,0,0,1-1.51-.39,1.28,1.28,0,0,1-.51-1.07v-.39h1.45v.45c0,.31.19.47.55.47a.8.8,0,0,0,.41-.1.43.43,0,0,0,.14-.38.87.87,0,0,0-.22-.59,3.63,3.63,0,0,0-.84-.61,4.37,4.37,0,0,1-1.14-.87,1.39,1.39,0,0,1-.33-.9,1.23,1.23,0,0,1,.53-1.06,2.49,2.49,0,0,1,1.51-.39,2.44,2.44,0,0,1,1.5.39,1.3,1.3,0,0,1,.5,1.07v.31H83.33v-.36a.44.44,0,0,0-.14-.37.66.66,0,0,0-.4-.1c-.35,0-.53.15-.53.45a.74.74,0,0,0,.24.53,3.87,3.87,0,0,0,.84.61,4.2,4.2,0,0,1,1.14.88,1.53,1.53,0,0,1,.32.95,1.27,1.27,0,0,1-.53,1.08A2.56,2.56,0,0,1,82.74,157.32Z"/><path class="cls-4" d="M87.33,157.28H86v-5.72h1.37Z"/><path class="cls-4" d="M91.19,157.28h-.74a2,2,0,0,1-1-.22,1.87,1.87,0,0,1-.68-.59,1.39,1.39,0,0,1-.24-.79v-2.61a1.37,1.37,0,0,1,.24-.8,1.87,1.87,0,0,1,.68-.59,2,2,0,0,1,1-.22h.74a2,2,0,0,1,1,.22,2,2,0,0,1,.68.59,1.4,1.4,0,0,1,.18.34,2.89,2.89,0,0,1,.07.75H91.63v-.24a.54.54,0,0,0-.15-.4.37.37,0,0,0-.29-.13h-.74a.45.45,0,0,0-.31.13.48.48,0,0,0-.14.35v2.61a.45.45,0,0,0,.14.33.42.42,0,0,0,.31.14h.76a.37.37,0,0,0,.3-.14.42.42,0,0,0,.14-.33v-.48h-.53v-1h1.95v1.61h0a1.31,1.31,0,0,1-.25.72,1.85,1.85,0,0,1-.68.58A2,2,0,0,1,91.19,157.28Z"/><path class="cls-4" d="M99,157.28H97.67l-2-3.06v3.06H94.32v-5.72h1.33l2,3.08v-3.08H99Z"/><path class="cls-1" d="M107.59,155.49l-.24.85h-1.5a.89.89,0,0,1-.73-.24.55.55,0,0,1-.06-.54l.13-.46h1.26l-.08.33s0,.06.06.06Zm.39.85h-.32l.41-1.44c0-.05,0-.08-.06-.08l-1.27-.22-.25,0-.24,0-.2-.05-.2-.06-.14-.1a.26.26,0,0,1-.1-.14.9.9,0,0,1,0-.18.8.8,0,0,1,0-.25l.22-.76a.91.91,0,0,1,.39-.55,1.46,1.46,0,0,1,.84-.23h.26l-.4,1.42s0,.08.06.08l1.28.2.2,0,.19,0,.18,0,.18,0,.13.06a.32.32,0,0,1,.13.08l.08.09a.38.38,0,0,1,.06.13.86.86,0,0,1,0,.17,1.62,1.62,0,0,1,0,.19l-.22.8a.94.94,0,0,1-.41.56A1.31,1.31,0,0,1,108,156.34Zm.55-3.29H107.4l.25-.85h1.44a1,1,0,0,1,.69.2.57.57,0,0,1,.11.58l-.13.45H108.5l.09-.32S108.59,153.05,108.53,153.05Z"/><path class="cls-1" d="M113.49,154.89h-1.63l.24-.86h1.27a.08.08,0,0,0,.09-.06l.24-.85s0-.06-.06-.06h-1.59l-.92,3.28h-1.29L111,152.2h3.24a1,1,0,0,1,.68.2.55.55,0,0,1,.12.58l-.32,1.13a1,1,0,0,1-.41.56A1.39,1.39,0,0,1,113.49,154.89Z"/><path class="cls-1" d="M118.49,156.34h-1.71l.24-.86h1.35a.09.09,0,0,0,.1-.06l.64-2.3s0-.06-.06-.06h-1.59a.08.08,0,0,0-.09.06l-.91,3.22h-.28a.9.9,0,0,1-.73-.24.6.6,0,0,1-.06-.54l.72-2.58a1,1,0,0,1,.39-.55,1.46,1.46,0,0,1,.84-.23h2.31a1,1,0,0,1,.68.2.57.57,0,0,1,.12.58l-.73,2.58a.94.94,0,0,1-.41.56A1.37,1.37,0,0,1,118.49,156.34Z"/><path class="cls-1" d="M123.18,154.89h-.7l.25-.86h1.36a.1.1,0,0,0,.09-.06l.24-.85s0-.06-.06-.06h-1.68l-.92,3.28h-1.29l1.16-4.14H125a1,1,0,0,1,.68.2.55.55,0,0,1,.11.58l-.32,1.16a.9.9,0,0,1-.32.46,1.33,1.33,0,0,1-.58.26l.51,1.48h-1.37Z"/><path class="cls-1" d="M131,152.2l-.24.86h-1.52l-.92,3.28h-1.3l.92-3.28h-1.52l.24-.86Z"/><path class="cls-1" d="M133.45,155.49l-.24.85h-1.5a.9.9,0,0,1-.73-.24.55.55,0,0,1-.06-.54l.12-.46h1.27l-.08.33s0,.06.06.06Zm.39.85h-.32l.41-1.44c0-.05,0-.08-.06-.08l-1.27-.22-.25,0-.24,0-.2-.05-.2-.06-.14-.1a.26.26,0,0,1-.1-.14.9.9,0,0,1,0-.18,1.29,1.29,0,0,1,0-.25l.22-.76a.91.91,0,0,1,.39-.55,1.46,1.46,0,0,1,.84-.23h.26l-.4,1.42s0,.08.06.08l1.28.2.2,0,.19,0,.18,0,.17,0,.14.06a.32.32,0,0,1,.13.08l.08.09a.38.38,0,0,1,.06.13.86.86,0,0,1,0,.17,1.62,1.62,0,0,1,0,.19l-.22.8a.94.94,0,0,1-.41.56A1.31,1.31,0,0,1,133.84,156.34Zm.55-3.29h-1.13l.25-.85H135a1,1,0,0,1,.69.2.55.55,0,0,1,.1.58l-.12.45h-1.26l.09-.32S134.45,153.05,134.39,153.05Z"/><path class="cls-1" d="M139.5,155.63l.6-.81h1.11l-.25-1.64-2.3,3.16h-1.4l3.2-4.14H142l.8,4.14h-1.32l-.12-.71Z"/><path class="cls-1" d="M144.57,156.34a.9.9,0,0,1-.73-.24.55.55,0,0,1-.06-.54l.72-2.58a1,1,0,0,1,.39-.55,1.48,1.48,0,0,1,.84-.23H146l-1.17,4.14Zm3-.22a.92.92,0,0,0,.4-.56l.15-.52h-1.27l-.11.38c0,.05-.05.06-.09.06h-1.22l-.24.86h1.55A1.43,1.43,0,0,0,147.55,156.12Zm-.18-3-.12.39h1.28l.15-.53a.57.57,0,0,0-.11-.58,1,1,0,0,0-.69-.2h-1.55l-.24.86h1.21C147.36,153.06,147.38,153.08,147.37,153.12Z"/><path class="cls-1" d="M149.73,156.34a.9.9,0,0,1-.73-.24.57.57,0,0,1-.06-.54l.72-2.58a1,1,0,0,1,.39-.55,1.46,1.46,0,0,1,.84-.23h.29L150,156.34Zm3-.22a.92.92,0,0,0,.4-.56l.15-.52H152l-.11.38c0,.05,0,.06-.09.06h-1.22l-.24.86h1.55A1.43,1.43,0,0,0,152.71,156.12Zm-.18-3-.12.39h1.28l.15-.53a.55.55,0,0,0-.11-.58,1,1,0,0,0-.69-.2h-1.55l-.24.86h1.21C152.52,153.06,152.54,153.08,152.53,153.12Z"/><path class="cls-1" d="M156,153.06l-.67,2.42H158l-.24.86h-3.89L155,152.2h3.88l-.24.86Zm1.89,1.62h-2l.25-.85h2Z"/><path class="cls-1" d="M161.48,155.49l-.24.85h-1.5a.87.87,0,0,1-.73-.24.57.57,0,0,1-.07-.54l.13-.46h1.27l-.09.33s0,.06.07.06Zm.38.85h-.31l.41-1.44c0-.05,0-.08-.07-.08l-1.27-.22-.24,0-.24,0-.21-.05a.7.7,0,0,1-.19-.06l-.14-.1a.22.22,0,0,1-.1-.14.48.48,0,0,1,0-.18.85.85,0,0,1,0-.25l.21-.76a1,1,0,0,1,.39-.55,1.46,1.46,0,0,1,.84-.23h.27l-.4,1.42s0,.08.06.08l1.28.2.19,0,.2,0,.18,0,.17,0,.14.06a.23.23,0,0,1,.12.08.73.73,0,0,1,.08.09.38.38,0,0,1,.06.13.46.46,0,0,1,0,.17.46.46,0,0,1,0,.19l-.21.8a1,1,0,0,1-.41.56A1.36,1.36,0,0,1,161.86,156.34Zm.55-3.29h-1.12l.24-.85H163a1,1,0,0,1,.68.2.55.55,0,0,1,.11.58l-.12.45h-1.26l.08-.32S162.47,153.05,162.41,153.05Z"/><path class="cls-1" d="M166.51,155.49l-.24.85h-1.5a.89.89,0,0,1-.73-.24.55.55,0,0,1-.06-.54l.12-.46h1.27l-.08.33s0,.06.06.06Zm.39.85h-.32l.41-1.44c0-.05,0-.08-.06-.08l-1.27-.22-.25,0-.24,0-.2-.05-.2-.06-.14-.1a.26.26,0,0,1-.1-.14.9.9,0,0,1,0-.18.59.59,0,0,1,0-.25l.21-.76a1,1,0,0,1,.4-.55,1.46,1.46,0,0,1,.84-.23h.26l-.4,1.42s0,.08.06.08l1.28.2.2,0,.19,0,.18,0,.17,0,.14.06a.32.32,0,0,1,.13.08l.08.09a.38.38,0,0,1,.06.13.86.86,0,0,1,0,.17,1.62,1.62,0,0,1,0,.19l-.22.8a1,1,0,0,1-.41.56A1.35,1.35,0,0,1,166.9,156.34Zm.55-3.29h-1.13l.25-.85H168a1,1,0,0,1,.69.2.55.55,0,0,1,.1.58l-.12.45h-1.26l.09-.32S167.51,153.05,167.45,153.05Z"/><path class="cls-1" d="M172.13,156.34h-1.71l.25-.86H172c.05,0,.09,0,.1-.06l.65-2.3s0-.06-.07-.06h-1.58a.1.1,0,0,0-.1.06l-.9,3.22h-.28a.91.91,0,0,1-.74-.24.6.6,0,0,1-.06-.54l.72-2.58a1,1,0,0,1,.4-.55,1.46,1.46,0,0,1,.84-.23h2.31a1,1,0,0,1,.68.2.57.57,0,0,1,.11.58l-.73,2.58a.92.92,0,0,1-.4.56A1.43,1.43,0,0,1,172.13,156.34Z"/><path class="cls-1" d="M176.82,154.89h-.69l.24-.86h1.36a.1.1,0,0,0,.1-.06l.23-.85s0-.06-.06-.06h-1.68l-.91,3.28h-1.3l1.16-4.14h3.32a1,1,0,0,1,.68.2.53.53,0,0,1,.12.58l-.33,1.16a.85.85,0,0,1-.32.46,1.28,1.28,0,0,1-.58.26l.51,1.48h-1.36Z"/><path class="cls-1" d="M182,152.2l-1.16,4.14h-1.29l1.16-4.14Z"/><path class="cls-1" d="M184.18,153.06l-.67,2.42h2.59l-.24.86H182l1.16-4.14H187l-.25.86Zm1.89,1.62h-2l.25-.85h2Z"/><path class="cls-1" d="M189.63,155.49l-.25.85h-1.49a.91.91,0,0,1-.74-.24.6.6,0,0,1-.06-.54l.13-.46h1.27l-.09.33s0,.06.06.06Zm.38.85h-.31l.4-1.44c0-.05,0-.08-.06-.08l-1.27-.22-.24,0-.25,0-.2-.05-.2-.06-.14-.1a.33.33,0,0,1-.1-.14.9.9,0,0,1,0-.18,1.29,1.29,0,0,1,0-.25l.22-.76a1,1,0,0,1,.39-.55,1.46,1.46,0,0,1,.84-.23h.27l-.4,1.42s0,.08.05.08l1.29.2.19,0,.2,0,.18,0,.17,0,.14.06a.36.36,0,0,1,.12.08l.08.09a.38.38,0,0,1,.06.13.86.86,0,0,1,0,.17.72.72,0,0,1,0,.19l-.22.8a.9.9,0,0,1-.41.56A1.31,1.31,0,0,1,190,156.34Zm.55-3.29h-1.12l.24-.85h1.45a1,1,0,0,1,.68.2.55.55,0,0,1,.11.58l-.13.45h-1.25l.08-.32S190.62,153.05,190.56,153.05Z"/></g></g></svg>