<svg xmlns="http://www.w3.org/2000/svg" viewBox="0 0 163.91 152.5"><defs><style>.cls-1{fill:#ab0510;}.cls-1,.cls-2{fill-rule:evenodd;}.cls-2{fill:#13007c;}</style></defs><g id="圖層_2" data-name="圖層 2"><g id="圖層_1-2" data-name="圖層 1"><path class="cls-1" d="M34.89,11.23l3.45,32.32S44.61,7,55.89,0C45,2.72,38.59,5.37,34.89,11.23Z"/><path class="cls-2" d="M75.39,50.17C73.64,49.39,72.67,49,72.67,49c-13.61-5.6-15.75,6.73-27.61,6.23,3.7,3.14,5.75,4.16,6.22,5.05.84,1.58-.94,5.84-5.14,11.93A22.06,22.06,0,0,1,36,54v0a1,1,0,0,1,0-.16c-3.07-9.19-4.82-40.1-4.82-40.1a71.61,71.61,0,0,0-5.37,5.39A56.79,56.79,0,0,0,14.38,39.81a15.39,15.39,0,0,0,.11,4.07c2.92,7.55,9.92,12.22,9.92,12.22s-8.84-3-12.21-4.59c-.12,1.51-.19,3-.19,4.59a56.74,56.74,0,0,0,2.51,16.73c2.93,2.77,7.62,4.74,15,5,3.53,1.13-7.62.85-13.08.29a56.92,56.92,0,0,0,8.4,14c3.92,1.28,14.89-.1,14.89-.1s-5.8,4.25-10.5,4.88A57,57,0,0,0,53,110.72h0c7.81,2.9,3.82,1.3,3.82,1.3a56.9,56.9,0,0,0,10.34.94h.15V78.55l1-.09,4.34-2.32S62.37,66,65.86,60.28c3.7-2.92,6.81-5.64,6.81-5.64s4.08-1.36,5.06.2S77.14,51,75.39,50.17Z"/><path class="cls-1" d="M127.62,11.23l-3.45,32.32S117.9,7,106.62,0C117.51,2.72,123.92,5.37,127.62,11.23Z"/><path class="cls-2" d="M133.28,77.82c7.36-.25,12.06-2.22,15-5a56.73,56.73,0,0,0,2.5-16.73q0-2.33-.18-4.59c-3.37,1.55-12.21,4.59-12.21,4.59s7-4.67,9.91-12.22a15,15,0,0,0,.11-4.07,56.77,56.77,0,0,0-11.35-20.76,70.44,70.44,0,0,0-5.38-5.39s-1.75,30.91-4.81,40.1l-.06.16v0a22.07,22.07,0,0,1-10.15,18.25c-4.2-6.09-6-10.35-5.15-11.93.48-.89,2.53-1.91,6.22-5.05-11.86.5-14-11.83-27.61-6.23,0,0-1,.39-2.72,1.17s-3.3,6.22-2.33,4.67,5-.2,5-.2,3.12,2.72,6.81,5.64c3.5,5.68-6.81,15.86-6.81,15.86l4.34,2.32,1,.09V113h.14a56.81,56.81,0,0,0,10.34-.94s-4,1.6,3.82-1.3h0a56.92,56.92,0,0,0,23.8-13.87c-4.69-.63-10.49-4.88-10.49-4.88s11,1.38,14.88.1a56.92,56.92,0,0,0,8.4-14C140.9,78.67,129.75,79,133.28,77.82Z"/><path d="M6.43,128.92v8.83H25.48v-8.83h6.44V152.5H25.48V143h-19v9.5H0V128.92Z"/><path d="M59.17,131.92A6.81,6.81,0,0,1,64,133.71a5.45,5.45,0,0,1,2,4.33v8.35a5.53,5.53,0,0,1-2,4.33,6.78,6.78,0,0,1-4.77,1.78H43.5a7,7,0,0,1-4.77-1.79,5.69,5.69,0,0,1-2-4.32V138a5.91,5.91,0,0,1,2-4.33,6.91,6.91,0,0,1,4.75-1.79ZM43.5,137.53a1.87,1.87,0,0,0-.65,1.46v6.43a1.93,1.93,0,0,0,.67,1.47,2.75,2.75,0,0,0,1.6.6H57.58a2.65,2.65,0,0,0,1.61-.6,1.89,1.89,0,0,0,.66-1.47V139a1.86,1.86,0,0,0-.68-1.46,2.09,2.09,0,0,0-1.59-.6H45.12A2.21,2.21,0,0,0,43.5,137.53Z"/><path d="M90.82,131.92A7.39,7.39,0,0,1,96,133.86a6.21,6.21,0,0,1,.45,9,7.63,7.63,0,0,1-4.27,2.25l6.59,7.42H91.63l-6-7.27H76.9v7.27H70.83V131.92ZM76.9,140.28H90.29a1.8,1.8,0,0,0,1.34-.46,1.59,1.59,0,0,0,.5-1.23,1.57,1.57,0,0,0-.5-1.22,1.72,1.72,0,0,0-1.34-.44H76.9Z"/><path d="M109.71,131.92v13.5a1.93,1.93,0,0,0,.67,1.47,2.75,2.75,0,0,0,1.6.6h11.16a2.73,2.73,0,0,0,1.62-.6,1.79,1.79,0,0,0,.65-1.47v-13.5h6.09v14.45a5.51,5.51,0,0,1-2,4.34,6.78,6.78,0,0,1-4.77,1.79H110.38a7,7,0,0,1-4.79-1.79,5.69,5.69,0,0,1-2-4.34V131.92Z"/><path d="M143.36,131.92h12.77a7,7,0,0,1,4.89,1.85,5.8,5.8,0,0,1,2,4.46v.12h-5.92v-.12a1,1,0,0,0-.4-.89,1.41,1.41,0,0,0-1-.38l-11.38,0a1.46,1.46,0,0,0-1,.38,1.11,1.11,0,0,0-.39.89,1.24,1.24,0,0,0,.41.91,1.47,1.47,0,0,0,1,.36c1.35,0,3.42,0,6.23,0s4.88,0,6.21,0a7.15,7.15,0,0,1,5,1.91,6.12,6.12,0,0,1,0,9.19,7.19,7.19,0,0,1-5,1.9H143.5a7.22,7.22,0,0,1-5-1.9A6,6,0,0,1,136.4,146v-.1h5.73V146a1.53,1.53,0,0,0,.48,1.07,1.66,1.66,0,0,0,1.15.43h12.53a1.69,1.69,0,0,0,1.17-.43,1.32,1.32,0,0,0,.46-1.05,1.42,1.42,0,0,0-.48-1.07,1.39,1.39,0,0,0-1.15-.43H143.38a7.08,7.08,0,0,1-4.9-1.86,5.9,5.9,0,0,1-2-4.47,5.71,5.71,0,0,1,2-4.39,7.44,7.44,0,0,1,4.84-1.92h.08Z"/></g></g></svg>