<svg xmlns="http://www.w3.org/2000/svg" viewBox="0 0 151.85 142.88"><defs><style>.cls-1{fill:red;}</style></defs><g id="圖層_2" data-name="圖層 2"><g id="圖層_1-2" data-name="圖層 1"><path d="M75.71,0a41.62,41.62,0,1,0,41.62,41.62A41.61,41.61,0,0,0,75.71,0ZM59.58,7.92a2.19,2.19,0,0,1,3.62.37,3.17,3.17,0,0,0-1.57-2.35,38.79,38.79,0,0,1,4.23-1.4,4.76,4.76,0,0,0-.73,2.52,8.36,8.36,0,0,0,3.12,5.57S64,11.84,60.76,11.1c0,0-2.68-1.41-1.18-3.18Zm8.11,59a6.3,6.3,0,0,1-3.93,3.73,25.19,25.19,0,0,1-8-.36s-7-.92-10.85-6.31a18.25,18.25,0,0,1-2.68-3.43v0A38.56,38.56,0,0,1,57.05,8.11a5.11,5.11,0,0,0,.35,1.83s.81,2.45,6.17,4.1c0,0-7.92-.67-11.35,2.2A12.51,12.51,0,0,0,50,18.94s-2.55,4.28-4.73,1.59a3.17,3.17,0,0,0,1.68,3.67s-3.62,2.33-3.56,7.9a79,79,0,0,1-.43,8.14s-.93,5.82-4.68,5.27c0,0,2.43,3.05,7.36-.68,0,0,2.31,6.49,4.74,8.75,0,0-1,2.94-.13,4.66,0,0,1.25,6.24-4.48,3.37,0,0,.87,2.81,5.48,1.65,0,0,1.87-.37,1.56-3.68,0,0,1.43-2.08,2.18-1.22a8,8,0,0,0,1.19,1,4.81,4.81,0,0,0,.62,3.12s.25,2-.37,2.33c0,0,1.31.24,2.74-2.14,0,0,.31-.92.94-1.11,0,0,3.43,1.84,5.36,2,0,0,3.43,1.35,2.25,3.43Zm34.83,2.62a15,15,0,0,0,1.33-11,20,20,0,0,0-5-8.57,24.4,24.4,0,0,0-8-4.71S87.89,44.16,82,45c0,0-7.8.56-12.16-.48,0,0-5.05-.43-7.42-4.59,0,0-1.75-3.74.25-7,0,0-2.75-4,.37-5.88,0,0,.06,4.53,1.75,5.57a7.48,7.48,0,0,0,5.61,1.41,9.23,9.23,0,0,0,3.49-2.14s1.62-1.41,5.3.55a30.34,30.34,0,0,1,9.54,7.89,4.16,4.16,0,0,1,2.93.55s4.37,1.72,7.23-1.28c0,0,1.75,1.9,3.31,8.69,0,0,1.74,8,7,5.69,0,0-2.69,1.1-5.12-3.73a8.34,8.34,0,0,0,6.3.55A3.47,3.47,0,0,0,113,47.71s.5-2.51-2.55-3.61c0,0,2.93,1.71,1.49,4.65,0,0-1.24,1.9-4.36,1.47,0,0-2.18.49-4.55-2.82,0,0-1.19-3.12-1.94-5.87,0,0-1.37-4.1-3.61-5.33,0,0,3.3-.8,3.61,1.16,0,0,0,.8.38.8a1.91,1.91,0,0,0,.85-2l0-.12s1-.05.87-1.43a1.55,1.55,0,0,1,.62-1.31s1.25-.24-.83-2.08c0,0,.38-.41,1.5-.2,0,0,.79.41.21-.7A4.85,4.85,0,0,0,102,28.06s-.58-.45-1.29.33a2.46,2.46,0,0,1-2.49.08,16.07,16.07,0,0,1-2.45-1.19s-.3-.36-2-.57A9.25,9.25,0,0,1,89,23.37s-1-1.55.58-2a4.88,4.88,0,0,1,2.37,0A7.26,7.26,0,0,0,88.18,17,5.14,5.14,0,0,0,85,17s.12-3.31-2.25-3.55c0,0-4.11.24-5.9-.33A2.1,2.1,0,0,1,75,11.7,2.89,2.89,0,0,0,73.48,13s-.75-1.59-4.3-1.71c0,0-2.37-1-2.12-4.41C67.06,6.88,67.5,4,70,4c0,0,2.31-.3,3.12,2.51a2.71,2.71,0,0,0-.89-3.1c1.18-.11,2.38-.17,3.59-.17a38.53,38.53,0,0,1,26.71,66.31ZM94.83,30.63a1.58,1.58,0,0,1-1.5.78C91.88,31,92,30.06,92,30.06c0-2,2.12-1.55,2.12-1.55a3.22,3.22,0,0,1,3,1.83c-1.83-.36-2.29.29-2.29.29Zm3.45,7.47a3.63,3.63,0,0,1-2.16,1.18c-1.42-.94-.25-3.06-.25-3.06a10.37,10.37,0,0,1,2.41,1.88ZM95,35.53s-1.58,1.59.37,3.75c0,0-3.33.7-7.23-2.49,0,0-8.69-6.69-12.85-7.71,0,0,3.58-3.14,7.11-2.57a7.82,7.82,0,0,1,3.82,2s5.12,5.79,8.78,7ZM80.32,22.79a36.16,36.16,0,0,0-5.07-1.1S75,19,78.16,19a4.31,4.31,0,0,1,2.91,1.22,12.79,12.79,0,0,0,3.78,2.49,8.14,8.14,0,0,1-4.53.08Z"/><path class="cls-1" d="M101.61,62.79A15.77,15.77,0,1,1,85.84,47,15.77,15.77,0,0,1,101.61,62.79Z"/><path d="M144.51,89.41V83.62h2.57a3.55,3.55,0,0,1,1.18.15,1.31,1.31,0,0,1,.64.55,1.69,1.69,0,0,1,.24.88,1.49,1.49,0,0,1-.39,1,2,2,0,0,1-1.24.53,2.17,2.17,0,0,1,.46.29,4.16,4.16,0,0,1,.64.77l1,1.58h-1l-.76-1.2a9.75,9.75,0,0,0-.56-.8,1.58,1.58,0,0,0-.39-.39,1.19,1.19,0,0,0-.35-.15,2,2,0,0,0-.42,0h-.89v2.57Zm.77-3.24h1.65a2.57,2.57,0,0,0,.82-.1.89.89,0,0,0,.45-.35,1,1,0,0,0,.15-.52.87.87,0,0,0-.3-.68,1.35,1.35,0,0,0-.94-.26h-1.83Z"/><path d="M146.62,91.73a5.23,5.23,0,1,1,5.23-5.23A5.24,5.24,0,0,1,146.62,91.73Zm0-9.58A4.35,4.35,0,1,0,151,86.5,4.35,4.35,0,0,0,146.62,82.15Z"/><path d="M8.28,116,6,122.22H0L11.49,92.61h5l11.37,29.61H21.6L19.28,116Zm9.09-5.49L13.87,101l-3.6,9.54Z"/><path d="M38,122.22h-5.8V92.61h9.05c3.46,0,6.14.82,8,2.44a8.45,8.45,0,0,1,2.86,6.82,9.07,9.07,0,0,1-1.91,5.82,8.28,8.28,0,0,1-5.13,3l7.43,11.49H45.61L38,108.48ZM38,107h1.24a9.32,9.32,0,0,0,5.34-1.27A4.23,4.23,0,0,0,46.39,102a4.05,4.05,0,0,0-1.5-3.49,8.05,8.05,0,0,0-4.75-1.11H38Z"/><path d="M70.89,92.61v5.21H65.3v24.4H59.52V97.82H53.93V92.61Z"/><path d="M92.16,122.22H86.49V92.61H92l12.28,18.92V92.61h5.66v29.61h-5.37L92.16,102.74Z"/><path d="M123,122.22h-5.67V92.61h5.47l12.28,18.92V92.61h5.65v29.61h-5.36L123,102.74Z"/><rect class="cls-1" x="74.08" y="92.61" width="5.75" height="7.49"/><rect x="74.08" y="100.1" width="5.75" height="22.12"/><path d="M46.61,130.47H45.19a5.59,5.59,0,0,0-1.82-1.57,4.85,4.85,0,0,0-2.23-.5,4.57,4.57,0,0,0-3.4,1.47,5,5,0,0,0-1.4,3.56A4.93,4.93,0,0,0,37.76,137a4.69,4.69,0,0,0,3.48,1.46,4.52,4.52,0,0,0,2.93-1,4.81,4.81,0,0,0,1.69-2.71h-6v-1.05h7.39a6.19,6.19,0,0,1-1.87,4.27,5.8,5.8,0,0,1-4.21,1.67,5.71,5.71,0,0,1-4.3-1.8,6.16,6.16,0,0,1-1.74-4.46A5.93,5.93,0,0,1,35.6,131,6.06,6.06,0,0,1,37,129a5.71,5.71,0,0,1,1.91-1.29,5.81,5.81,0,0,1,2.27-.44,5.85,5.85,0,0,1,5.45,3.23Z"/><path d="M55.73,127.24a6.05,6.05,0,0,1,2.31.44,6.17,6.17,0,0,1,2,1.3,6,6,0,0,1,1.36,2,6.17,6.17,0,0,1,.46,2.39,6.64,6.64,0,0,1-.39,2.32,5.78,5.78,0,0,1-1.18,1.93,6.06,6.06,0,0,1-2.05,1.5,6,6,0,0,1-2.48.51,5.74,5.74,0,0,1-4.3-1.8,6.17,6.17,0,0,1-1.74-4.46,6.06,6.06,0,0,1,.47-2.36,6.25,6.25,0,0,1,1.39-2,5.76,5.76,0,0,1,1.91-1.29A6,6,0,0,1,55.73,127.24Zm0,1.14a4.53,4.53,0,0,0-3.41,1.48,5.22,5.22,0,0,0,0,7.15,4.68,4.68,0,0,0,3.48,1.45A4.51,4.51,0,0,0,59.21,137a5.07,5.07,0,0,0,1.4-3.64,4.8,4.8,0,0,0-1.44-3.49A4.65,4.65,0,0,0,55.71,128.38Z"/><path d="M64.54,127.48h1.18v10.74H69.9v1.15H64.54Z"/><path d="M71.86,127.48h5.88v1.17H73v4.16h4.72V134H73v5.38H71.86Z"/><path d="M85.24,127.48h3.58a5.64,5.64,0,0,1,6,5.92,6.35,6.35,0,0,1-.61,2.83,5.65,5.65,0,0,1-1.77,2.12,5.08,5.08,0,0,1-1.6.79,10.11,10.11,0,0,1-2.45.23h-3.1Zm1.15,1.14v9.63h2.75a4.09,4.09,0,0,0,3.2-1.33,5.1,5.1,0,0,0,1.2-3.55,4.76,4.76,0,0,0-1.24-3.47,4.49,4.49,0,0,0-3.39-1.28Z"/><path d="M106,135.24H97.92A3.4,3.4,0,0,0,99,137.6a3.53,3.53,0,0,0,4.22.4,3.45,3.45,0,0,0,1.24-1.47h1.31a5.21,5.21,0,0,1-1.75,2.29,4.31,4.31,0,0,1-2.6.8,4.49,4.49,0,0,1-3.35-1.35,5,5,0,0,1,0-6.78,4.49,4.49,0,0,1,3.33-1.35,4.36,4.36,0,0,1,3.38,1.39,5.19,5.19,0,0,1,1.28,3.68Zm-1.27-1a4,4,0,0,0-1.21-2.27,3.37,3.37,0,0,0-2.29-.77,3.19,3.19,0,0,0-2.21.83A3.44,3.44,0,0,0,98,134.27Z"/><path d="M112.71,132.63h-1.26a1.41,1.41,0,0,0-.4-1,1.32,1.32,0,0,0-1-.35,1.25,1.25,0,0,0-1,.39,1.34,1.34,0,0,0-.37,1,1.23,1.23,0,0,0,.16.65,1.43,1.43,0,0,0,.49.49,4.23,4.23,0,0,0,1,.38c.42.12.7.22.85.28a2.42,2.42,0,0,1,1.63,2.48,2.51,2.51,0,0,1-.81,1.91,2.86,2.86,0,0,1-2.05.77,2.68,2.68,0,0,1-2-.83,3.24,3.24,0,0,1-.81-2.24h1.2v0a2,2,0,0,0,.48,1.39,1.51,1.51,0,0,0,1.19.55,1.58,1.58,0,0,0,1.13-.42,1.4,1.4,0,0,0,.45-1.07,1.48,1.48,0,0,0-.36-1,3.38,3.38,0,0,0-1.29-.74,4.84,4.84,0,0,1-2-1.09,2.2,2.2,0,0,1-.44-1.45,2.46,2.46,0,0,1,.75-1.81,2.59,2.59,0,0,1,1.86-.74,2.54,2.54,0,0,1,1.83.65A2.59,2.59,0,0,1,112.71,132.63Z"/><path d="M114.38,127.48h1.17v1.85h-1.17Zm0,2.91h1.17v9h-1.17Z"/><path d="M125.56,132.1l-.06-1.71h1.13v7.49a5.32,5.32,0,0,1-1.19,3.68,4.16,4.16,0,0,1-3.26,1.32,4.53,4.53,0,0,1-2.63-.75,3.37,3.37,0,0,1-1.39-2h1.34a2.22,2.22,0,0,0,1,1.22,3,3,0,0,0,1.66.43,3.17,3.17,0,0,0,2.53-1.07,4.49,4.49,0,0,0,.92-3v-.1a3.93,3.93,0,0,1-1.45,1.44,3.7,3.7,0,0,1-1.93.54,4.76,4.76,0,0,1-3.38-8.06,4.41,4.41,0,0,1,3.28-1.35,4,4,0,0,1,2,.49A4.28,4.28,0,0,1,125.56,132.1Zm-3.45-.87a3.26,3.26,0,0,0-2.41,1,3.51,3.51,0,0,0-1,2.54,3.69,3.69,0,0,0,1,2.63,3.19,3.19,0,0,0,4.77,0,3.49,3.49,0,0,0,1-2.5,3.74,3.74,0,0,0-1-2.62A3.13,3.13,0,0,0,122.11,131.23Z"/><path d="M136.75,134.22v5.15h-1.13v-5A3.54,3.54,0,0,0,135,132a2.43,2.43,0,0,0-1.95-.71,2.75,2.75,0,0,0-1.37.32,2.2,2.2,0,0,0-.94.9,2.63,2.63,0,0,0-.28.79,8.16,8.16,0,0,0-.09,1.44v4.61h-1.13v-9h1.12v1a3.34,3.34,0,0,1,1.22-.91,4.15,4.15,0,0,1,1.6-.29,3.37,3.37,0,0,1,2.65,1A4.35,4.35,0,0,1,136.75,134.22Z"/></g></g></svg>