<svg xmlns="http://www.w3.org/2000/svg" viewBox="0 0 81.33 81.33"><defs><style>.cls-1{fill:#fff;}</style></defs><g id="圖層_2" data-name="圖層 2"><g id="圖層_1-2" data-name="圖層 1"><path class="cls-1" d="M40.66,81.33A40.67,40.67,0,1,1,81.33,40.67,40.71,40.71,0,0,1,40.66,81.33Zm0-77.69a37,37,0,1,0,37,37A37.07,37.07,0,0,0,40.66,3.64Z"/><path class="cls-1" d="M47.39,42.41H41.25V62.15H32.16V42.41H27.84V34.68h4.32v-5c0-3.57,1.7-9.17,9.17-9.17l6.74,0V28H43.18a1.85,1.85,0,0,0-1.93,2.1v4.55h6.93Z"/></g></g></svg>