<svg xmlns="http://www.w3.org/2000/svg" viewBox="0 0 80.35 80.35"><defs><style>.cls-1{fill:#fff;}</style></defs><g id="圖層_2" data-name="圖層 2"><g id="圖層_1-2" data-name="圖層 1"><path class="cls-1" d="M40.17,80.35A40.18,40.18,0,1,1,80.35,40.17,40.22,40.22,0,0,1,40.17,80.35Zm0-76.76A36.58,36.58,0,1,0,76.75,40.17,36.62,36.62,0,0,0,40.17,3.59Z"/><path class="cls-1" d="M49.48,19.48H30.86A11.44,11.44,0,0,0,19.42,30.92V49.54A11.44,11.44,0,0,0,30.86,61H49.48A11.45,11.45,0,0,0,60.93,49.54V30.92A11.45,11.45,0,0,0,49.48,19.48Zm8.09,30a8.13,8.13,0,0,1-8.13,8.13H30.91a8.14,8.14,0,0,1-8.14-8.13V31a8.15,8.15,0,0,1,8.14-8.14H49.44A8.14,8.14,0,0,1,57.57,31Z"/><path class="cls-1" d="M40.17,29.29A10.94,10.94,0,1,0,51.11,40.23,10.93,10.93,0,0,0,40.17,29.29Zm0,18.08a7.14,7.14,0,1,1,7.14-7.14A7.14,7.14,0,0,1,40.17,47.37Z"/><path class="cls-1" d="M53.94,28.93a2.46,2.46,0,1,1-2.46-2.45A2.45,2.45,0,0,1,53.94,28.93Z"/></g></g></svg>