<svg xmlns="http://www.w3.org/2000/svg" viewBox="0 0 80.35 80.35"><defs><style>.cls-1{fill:#fff;}</style></defs><g id="圖層_2" data-name="圖層 2"><g id="圖層_1-2" data-name="圖層 1"><path class="cls-1" d="M58.88,18.15c-17.89-11-36-3.3-43,5.78A20.66,20.66,0,0,0,18,51.66c8,7.72,16.53,6.53,18.53,7a2.66,2.66,0,0,1,2.06,2.43c.38,5.08-4.43,6.87-1.57,6.54a20.38,20.38,0,0,0,6.33-2.55c19-10,23.78-21.56,23.78-21.56C73.9,27.61,58.88,18.15,58.88,18.15ZM31.1,42.41a.24.24,0,0,1-.22.22H22.67a.24.24,0,0,1-.22-.22V30.09a.2.2,0,0,1,.22-.22h2.7a.2.2,0,0,1,.22.22v9.62h5.29a.23.23,0,0,1,.22.21Zm4.49,0c0,.11-.06.22-.17.22H33a.24.24,0,0,1-.22-.22V30.09a.2.2,0,0,1,.22-.22h2.43c.11,0,.17.06.17.22Zm12.92,0a.24.24,0,0,1-.23.22H46a.23.23,0,0,1-.21-.22v0l-5.52-7v7a.23.23,0,0,1-.21.22H37.64c-.06,0-.16-.11-.16-.22V29.93a.17.17,0,0,1,.16-.17H40c.11,0,.21.06.21.17V30l5.52,7.4V29.93c0-.11.1-.17.21-.17h2.32c.12,0,.23.06.23.17Zm10.37-9.94a.31.31,0,0,1-.22.27h-5.4v2h5.4a.47.47,0,0,1,.22.22V37.5c0,.11-.17.16-.22.16h-5.4v2.15h5.4c.05,0,.22.06.22.17v2.43c0,.11-.17.22-.22.22h-8a.25.25,0,0,1-.22-.22V30.09a.21.21,0,0,1,.22-.22h8a.24.24,0,0,1,.22.22Z"/><path class="cls-1" d="M40.17,80.35A40.18,40.18,0,1,1,80.35,40.17,40.22,40.22,0,0,1,40.17,80.35Zm0-76.76A36.58,36.58,0,1,0,76.75,40.17,36.62,36.62,0,0,0,40.17,3.59Z"/></g></g></svg>