<svg xmlns="http://www.w3.org/2000/svg" viewBox="0 0 242.19 124.26"><defs><style>.cls-1{fill:red;}.cls-2,.cls-3{fill:#fff;}.cls-3{fill-rule:evenodd;}</style></defs><g id="圖層_2" data-name="圖層 2"><g id="圖層_1-2" data-name="圖層 1"><path class="cls-1" d="M74.66,82.79A17.23,17.23,0,1,1,57.43,65.56,17.22,17.22,0,0,1,74.66,82.79Z"/><path class="cls-2" d="M14.41,70.46h6.67l14.53,29H28.53l-3.94-8H16.23L12.9,87,7.08,99.49H0Zm3.21,6.2-4.54,9.58h9.39l-4.66-9.58Z"/><path class="cls-2" d="M45.32,70.46H62.88a9,9,0,0,1,3.91.79,8,8,0,0,1,2.76,2.1,9.06,9.06,0,0,1,1.63,3,10.86,10.86,0,0,1,.55,3.44,12.05,12.05,0,0,1-1.3,5.81A6.6,6.6,0,0,1,66,88.76l8.42,10.73H66.52l-12.6-15h8.36a2.34,2.34,0,0,0,1.39-.48,4.45,4.45,0,0,0,1.12-1.17,6.18,6.18,0,0,0,.73-1.48,4.35,4.35,0,0,0,.27-1.4,4.14,4.14,0,0,0-.21-1.17A5,5,0,0,0,65,77.52,4,4,0,0,0,64,76.46,1.83,1.83,0,0,0,62.88,76H45.32Z"/><path class="cls-2" d="M113.45,70.46v5.1h-9.32V99.49H97.58V75.56H88.26v-5.1Z"/><path class="cls-2" d="M140.78,99.49h-7.25V70.39h7.25Z"/><path class="cls-2" d="M194.72,99.49h-6.86L170.44,80V99.49h-7V70.39h6.9l17.33,19.49V70.39h7.06Z"/><path class="cls-2" d="M242.19,99.49h-6.86L217.91,80V99.49h-7V70.39h6.9l17.33,19.49V70.39h7.06Z"/><path class="cls-2" d="M59.84,112.86v2.54H48.57a1.45,1.45,0,0,0-1,.39,1.19,1.19,0,0,0-.42.94v3.66a1.27,1.27,0,0,0,.42,1,1.53,1.53,0,0,0,1,.38h8.55V120H53.23v-2.41h7v6.72H47.66a3.73,3.73,0,0,1-2.6-1A3.07,3.07,0,0,1,44,120.93v-4.74a3,3,0,0,1,1.06-2.35,3.69,3.69,0,0,1,2.6-1Z"/><path class="cls-2" d="M74.31,112.86a3.68,3.68,0,0,1,2.6,1A3,3,0,0,1,78,116.19v4.74a3,3,0,0,1-1.06,2.36,3.71,3.71,0,0,1-2.6,1H65.4a3.73,3.73,0,0,1-2.6-1,3.08,3.08,0,0,1-1.07-2.36v-4.74a3.06,3.06,0,0,1,1.07-2.35,3.69,3.69,0,0,1,2.6-1Zm-9,2.93a1.19,1.19,0,0,0-.42.94v3.66a1.27,1.27,0,0,0,.42,1,1.53,1.53,0,0,0,1,.38H73.4a1.62,1.62,0,0,0,1-.38,1.28,1.28,0,0,0,.42-1v-3.66a1.22,1.22,0,0,0-.42-1,1.35,1.35,0,0,0-1-.38H66.31A1.45,1.45,0,0,0,65.27,115.79Z"/><path class="cls-2" d="M79.48,124.26v-11.4h3.11v8.86H93v2.54Z"/><path class="cls-2" d="M108.22,112.86v2.54H97.58v2.22h9.18v2.49H97.58v4.15H94.47v-11.4Z"/><path class="cls-2" d="M130.15,112.86a4.32,4.32,0,0,1,1.91.44,3.59,3.59,0,0,1,1.46,1.22,2.6,2.6,0,0,1,.55,1.67v4.74a2.58,2.58,0,0,1-.56,1.68,3.78,3.78,0,0,1-1.46,1.21,4.06,4.06,0,0,1-1.9.44h-12.1v-11.4Zm-9,8.86h8.33a1.6,1.6,0,0,0,1-.38,1.26,1.26,0,0,0,.43-1v-3.66a1.2,1.2,0,0,0-.43-1,1.33,1.33,0,0,0-1-.38h-8.33Z"/><path class="cls-2" d="M147.86,114.31v2.42h-9.32v1.32h8.08v2.39h-8.08v1.4h9.32v2.42H135.59v-10Z"/><path class="cls-2" d="M152.73,114.31h6.18a3.36,3.36,0,0,1,2.36.9,2.76,2.76,0,0,1,1,2.15v.06h-2.86v-.06a.49.49,0,0,0-.19-.43.7.7,0,0,0-.48-.18h-5.5a.72.72,0,0,0-.49.18.57.57,0,0,0-.19.43.6.6,0,0,0,.2.44.68.68,0,0,0,.48.18h3q2,0,3,0a3.45,3.45,0,0,1,2.43.92,3,3,0,0,1,0,4.45,3.44,3.44,0,0,1-2.43.91H152.8a3.48,3.48,0,0,1-2.43-.91,2.88,2.88,0,0,1-1-2.23v-.05h2.77v.07a.75.75,0,0,0,.23.52.83.83,0,0,0,.56.21H159a.84.84,0,0,0,.57-.21.63.63,0,0,0,.22-.51.74.74,0,0,0-.79-.72h-6.24a3.47,3.47,0,0,1-2.37-.9,2.89,2.89,0,0,1-1-2.17,2.78,2.78,0,0,1,1-2.12,3.54,3.54,0,0,1,2.34-.93h0Z"/><path class="cls-2" d="M167.12,114.31v10h-2.93v-10Z"/><path class="cls-2" d="M182.38,114.31v2.42h-9.72a1.11,1.11,0,0,0-.78.29.93.93,0,0,0-.32.71v3.11a.92.92,0,0,0,.33.71,1.22,1.22,0,0,0,.77.29h7.13V120.6h-3.31v-2.31h6.24v6H171.89a3.34,3.34,0,0,1-2.32-.86,2.75,2.75,0,0,1-.95-2.09v-4a2.87,2.87,0,0,1,1-2.1,3.39,3.39,0,0,1,2.31-.86Z"/><path class="cls-2" d="M187.07,114.31l8.19,6.63v-6.63h2.94v10h-2.86l-8.18-6.63v6.63h-2.94v-10Z"/><path class="cls-3" d="M102.23,0q9.21,21.47,18.41,42.94l1.25,0Q130.82,21.62,139.75.23l1.24.1a164.15,164.15,0,0,1,.82,17c-5.84,12.92-11.47,25.9-17.33,38.8a4.52,4.52,0,0,1-3.2,2.25,4.59,4.59,0,0,1-3.39-2.06c-6.42-13.82-13-27.6-18.68-41.6.26-3.18,1.65-13.25,2-14.63Z"/><path class="cls-3" d="M69.71,28c9.55,4.54,22.1,11.42,31.66,16,.37-.17-5.49-12.33-5.12-12.5a61.09,61.09,0,0,1,2.86-6.55c4.15,8.61,8.1,16.68,11.88,24.82a2.53,2.53,0,0,1-3.56,3.08c-9.93-4.06-20-9.51-29.61-13.87C74.94,34.73,69.37,28.46,69.71,28Z"/><path class="cls-3" d="M172.49,26.71c-9.74,5-22.59,12.47-32.33,17.45-.36-.16,6.19-12.7,5.83-12.86a57,57,0,0,0-2.41-6.52c-4.65,8.89-9.06,17.22-13.3,25.62a3.07,3.07,0,0,0,.6,2.81,3,3,0,0,0,2.73.16c10.08-4.51,20.34-10.44,30.17-15.25C166.89,33.72,172.8,27.14,172.49,26.71Z"/><polygon class="cls-2" points="120.98 18.72 113.02 0.22 128.95 0.22 120.98 18.72"/></g></g></svg>