<svg xmlns="http://www.w3.org/2000/svg" viewBox="0 0 461.15 75.98"><defs><style>.cls-1{fill:#c2000b;}.cls-2,.cls-3{fill:#fff;}.cls-3{fill-rule:evenodd;}</style></defs><g id="圖層_2" data-name="圖層 2"><g id="圖層_1-2" data-name="圖層 1"><path class="cls-1" d="M244.29,22.3A22.29,22.29,0,1,1,222,0,22.29,22.29,0,0,1,244.29,22.3Z"/><path class="cls-2" d="M166.32,6.33h8.62l18.81,37.58h-9.17l-5.1-10.42H168.66l-4.31-5.8-7.52,16.22h-9.17Zm4.15,8-5.88,12.4h12.15l-6-12.4Z"/><path class="cls-2" d="M206.32,6.33h22.73a11.72,11.72,0,0,1,5.06,1,10.16,10.16,0,0,1,3.57,2.72,11.46,11.46,0,0,1,2.11,3.85,13.94,13.94,0,0,1,.71,4.44,15.46,15.46,0,0,1-1.69,7.53A8.5,8.5,0,0,1,233.13,30L244,43.91H233.76L217.45,24.55h10.82a3.11,3.11,0,0,0,1.8-.62,5.67,5.67,0,0,0,1.45-1.52,8.08,8.08,0,0,0,.94-1.91,5.57,5.57,0,0,0,.36-1.82,5.08,5.08,0,0,0-.28-1.51,6.87,6.87,0,0,0-.78-1.7,5.31,5.31,0,0,0-1.22-1.36,2.35,2.35,0,0,0-1.49-.55H206.32Z"/><path class="cls-2" d="M294.51,6.33v6.61H282.44v31H274v-31H261.9V6.33Z"/><path class="cls-2" d="M329.88,43.91H320.5V6.25h9.38Z"/><path class="cls-2" d="M399.7,43.91h-8.88L368.28,18.72V43.91H359.2V6.25h8.92l22.43,25.22V6.25h9.15Z"/><path class="cls-2" d="M461.15,43.91h-8.88L429.72,18.72V43.91h-9.08V6.25h8.93L452,31.47V6.25h9.15Z"/><path class="cls-2" d="M225.11,61.22V64.5H210.53a1.92,1.92,0,0,0-1.35.51,1.56,1.56,0,0,0-.55,1.22V71a1.67,1.67,0,0,0,.55,1.23,2,2,0,0,0,1.35.49h11.06V70.4h-5V67.28h9.07V76H209.35A4.85,4.85,0,0,1,206,74.72a4,4,0,0,1-1.37-3V65.53A4,4,0,0,1,206,62.48a4.85,4.85,0,0,1,3.37-1.26Z"/><path class="cls-2" d="M243.85,61.22a4.8,4.8,0,0,1,3.36,1.26,4,4,0,0,1,1.38,3.05v6.14a4,4,0,0,1-1.38,3A4.8,4.8,0,0,1,243.85,76H232.31A4.8,4.8,0,0,1,229,74.72a4,4,0,0,1-1.39-3V65.53A4,4,0,0,1,229,62.48a4.8,4.8,0,0,1,3.36-1.26ZM232.14,65a1.56,1.56,0,0,0-.55,1.22V71a1.67,1.67,0,0,0,.55,1.23,2,2,0,0,0,1.35.49h9.17a2.13,2.13,0,0,0,1.35-.5,1.61,1.61,0,0,0,.54-1.22V66.23A1.55,1.55,0,0,0,244,65a1.76,1.76,0,0,0-1.35-.5h-9.17A1.92,1.92,0,0,0,232.14,65Z"/><path class="cls-2" d="M250.54,76V61.22h4V72.69H268V76Z"/><path class="cls-2" d="M287.74,61.22V64.5H274v2.88h11.88V70.6H274V76h-4V61.22Z"/><path class="cls-2" d="M316.12,61.22a5.57,5.57,0,0,1,2.48.57,4.56,4.56,0,0,1,1.88,1.57,3.33,3.33,0,0,1,.71,2.17v6.14a3.34,3.34,0,0,1-.72,2.17,4.82,4.82,0,0,1-1.88,1.57,5.44,5.44,0,0,1-2.47.57H300.45V61.22ZM304.48,72.69h10.79a2.13,2.13,0,0,0,1.35-.5,1.64,1.64,0,0,0,.54-1.22V66.23a1.59,1.59,0,0,0-.54-1.23,1.76,1.76,0,0,0-1.35-.5H304.48Z"/><path class="cls-2" d="M339.05,63.09v3.14H327v1.71h10.46V71H327v1.82h12.07V76H323.17V63.09Z"/><path class="cls-2" d="M345.35,63.09h8a4.36,4.36,0,0,1,3.07,1.17,3.63,3.63,0,0,1,1.27,2.79v.07H354v-.07a.61.61,0,0,0-.25-.56.88.88,0,0,0-.62-.24H346a.92.92,0,0,0-.63.24.72.72,0,0,0-.25.56.79.79,0,0,0,.26.57.91.91,0,0,0,.62.23l3.9,0c1.75,0,3.05,0,3.89,0a4.45,4.45,0,0,1,3.14,1.2,3.83,3.83,0,0,1,0,5.75A4.44,4.44,0,0,1,353.77,76h-8.34a4.47,4.47,0,0,1-3.14-1.19,3.74,3.74,0,0,1-1.3-2.87v-.07h3.59v.09a.92.92,0,0,0,.3.67,1,1,0,0,0,.72.27h7.84a1.09,1.09,0,0,0,.74-.27.84.84,0,0,0,.29-.66,1,1,0,0,0-1-.94h-8.08a4.46,4.46,0,0,1-3.07-1.16,3.73,3.73,0,0,1-1.27-2.8,3.58,3.58,0,0,1,1.25-2.75,4.66,4.66,0,0,1,3-1.21h.05Z"/><path class="cls-2" d="M364,63.09V76h-3.79V63.09Z"/><path class="cls-2" d="M383.73,63.09v3.14H371.15a1.46,1.46,0,0,0-1,.37,1.2,1.2,0,0,0-.41.92v4a1.2,1.2,0,0,0,.43.92,1.63,1.63,0,0,0,1,.37h9.22v-1.6h-4.28v-3h8.08V76h-14a4.31,4.31,0,0,1-3-1.12,3.54,3.54,0,0,1-1.23-2.71V66.93a3.64,3.64,0,0,1,1.24-2.71,4.29,4.29,0,0,1,3-1.13Z"/><path class="cls-2" d="M389.79,63.09l10.61,8.59V63.09h3.8V76h-3.7l-10.59-8.59V76h-3.8V63.09Z"/><path class="cls-3" d="M42.11.21Q54,28,66,55.78l1.61.06Q79.13,28.18,90.67.5l1.61.13a214,214,0,0,1,1.07,22C85.79,39.36,78.51,56.16,70.92,72.86a5.9,5.9,0,0,1-4.14,2.91,6,6,0,0,1-4.4-2.67C54.08,55.22,45.61,37.38,38.2,19.26c.34-4.11,2.14-17.15,2.61-18.94Z"/><path class="cls-3" d="M0,36.47c12.36,5.88,28.61,14.78,41,20.67.48-.23-7.1-16-6.62-16.19,1.7-4.25,0-.55,3.69-8.47C43.45,43.62,48.56,54.06,53.45,64.6c.42.9-.21,2.89-1,3.63a4.08,4.08,0,0,1-3.58.36C36,63.33,23,56.28,10.52,50.64,6.8,45.16-.42,37,0,36.47Z"/><path class="cls-3" d="M133.06,34.78c-12.61,6.46-29.25,16.14-41.85,22.59-.46-.21,8-16.45,7.55-16.66-1.42-4.22,0-.55-3.13-8.43-6,11.51-11.72,22.28-17.21,33.16a4,4,0,0,0,.79,3.63c.68.65,2.48.69,3.53.22,13-5.84,26.32-13.51,39.05-19.74C125.81,43.85,133.46,35.34,133.06,34.78Z"/><polygon class="cls-2" points="66.39 24.43 56.08 0.49 76.7 0.49 66.39 24.43"/></g></g></svg>